<svg width="393" height="852" viewBox="0 0 393 852" fill="none" xmlns="http://www.w3.org/2000/svg">
<rect width="393" height="852" fill="#F3F3F3"/>
<rect x="18.5" y="340.5" width="344" height="29" rx="9.5" stroke="#D9D9D9"/>
<path d="M36.6649 357.36L36.1649 357L37.1449 355.73L35.6049 355.28L35.8049 354.69L37.3049 355.23L37.2449 353.64H37.8749L37.8249 355.24L39.3349 354.69L39.5249 355.28L37.9949 355.73L38.9749 357L38.4649 357.36L37.5749 356.03L36.6649 357.36ZM41.2059 357.36L40.7059 357L41.6859 355.73L40.1459 355.28L40.3459 354.69L41.8459 355.23L41.7859 353.64H42.4159L42.3659 355.24L43.8759 354.69L44.0659 355.28L42.5359 355.73L43.5159 357L43.0059 357.36L42.1159 356.03L41.2059 357.36ZM45.747 357.36L45.247 357L46.227 355.73L44.687 355.28L44.887 354.69L46.387 355.23L46.327 353.64H46.957L46.907 355.24L48.417 354.69L48.607 355.28L47.077 355.73L48.057 357L47.547 357.36L46.657 356.03L45.747 357.36ZM50.288 357.36L49.788 357L50.768 355.73L49.228 355.28L49.428 354.69L50.928 355.23L50.868 353.64H51.498L51.448 355.24L52.958 354.69L53.148 355.28L51.618 355.73L52.598 357L52.088 357.36L51.198 356.03L50.288 357.36ZM54.829 357.36L54.329 357L55.309 355.73L53.769 355.28L53.969 354.69L55.469 355.23L55.409 353.64H56.039L55.989 355.24L57.499 354.69L57.689 355.28L56.159 355.73L57.139 357L56.629 357.36L55.739 356.03L54.829 357.36ZM59.37 357.36L58.87 357L59.85 355.73L58.31 355.28L58.51 354.69L60.01 355.23L59.95 353.64H60.58L60.53 355.24L62.04 354.69L62.23 355.28L60.7 355.73L61.68 357L61.17 357.36L60.28 356.03L59.37 357.36ZM63.911 357.36L63.411 357L64.391 355.73L62.851 355.28L63.051 354.69L64.551 355.23L64.491 353.64H65.121L65.071 355.24L66.581 354.69L66.771 355.28L65.241 355.73L66.221 357L65.711 357.36L64.821 356.03L63.911 357.36ZM68.452 357.36L67.952 357L68.932 355.73L67.392 355.28L67.592 354.69L69.092 355.23L69.032 353.64H69.662L69.612 355.24L71.122 354.69L71.312 355.28L69.782 355.73L70.762 357L70.252 357.36L69.362 356.03L68.452 357.36ZM72.993 357.36L72.493 357L73.473 355.73L71.933 355.28L72.133 354.69L73.633 355.23L73.573 353.64H74.203L74.153 355.24L75.663 354.69L75.853 355.28L74.323 355.73L75.303 357L74.793 357.36L73.903 356.03L72.993 357.36ZM77.5341 357.36L77.0341 357L78.0141 355.73L76.4741 355.28L76.6741 354.69L78.1741 355.23L78.1141 353.64H78.7441L78.6941 355.24L80.2041 354.69L80.3941 355.28L78.8641 355.73L79.8441 357L79.3341 357.36L78.4441 356.03L77.5341 357.36Z" fill="black"/>
<path d="M330.026 348.261C330.43 347.857 330.972 347.622 331.543 347.603C332.114 347.584 332.671 347.784 333.101 348.16L333.208 348.261L333.739 348.792C334.142 349.195 334.378 349.738 334.396 350.308C334.415 350.879 334.216 351.435 333.84 351.865L333.739 351.973L325.33 360.383C325.211 360.502 325.067 360.592 324.908 360.648L324.787 360.684L321.446 361.455C321.329 361.482 321.207 361.48 321.091 361.451C320.974 361.421 320.867 361.364 320.777 361.284C320.687 361.204 320.618 361.103 320.576 360.991C320.533 360.879 320.518 360.758 320.531 360.639L320.546 360.554L321.316 357.213C321.355 357.049 321.429 356.895 321.534 356.764L321.617 356.67L330.026 348.261ZM329.496 350.913L322.753 357.655L322.276 359.724L324.345 359.246L331.087 352.503L329.496 350.913ZM332.148 349.322C332.019 349.193 331.847 349.115 331.665 349.104C331.482 349.092 331.302 349.148 331.158 349.26L331.087 349.322L330.556 349.852L332.148 351.443L332.678 350.913C332.807 350.783 332.885 350.612 332.896 350.429C332.908 350.247 332.852 350.067 332.74 349.923L332.678 349.852L332.148 349.322Z" fill="#757575"/>
<path d="M18.936 323V314.54H22.692C23.62 314.54 24.328 314.764 24.816 315.212C25.304 315.66 25.548 316.276 25.548 317.06C25.548 317.836 25.304 318.452 24.816 318.908C24.328 319.364 23.62 319.592 22.692 319.592H20.484V323H18.936ZM20.484 318.368H22.512C23.024 318.368 23.408 318.256 23.664 318.032C23.92 317.8 24.048 317.476 24.048 317.06C24.048 316.644 23.92 316.324 23.664 316.1C23.408 315.868 23.024 315.752 22.512 315.752H20.484V318.368ZM28.8669 323.12C28.3389 323.12 27.8749 322.996 27.4749 322.748C27.0749 322.492 26.7629 322.128 26.5389 321.656C26.3149 321.184 26.2029 320.62 26.2029 319.964C26.2029 319.308 26.3149 318.748 26.5389 318.284C26.7629 317.812 27.0749 317.452 27.4749 317.204C27.8749 316.948 28.3389 316.82 28.8669 316.82C29.3789 316.82 29.8269 316.948 30.2109 317.204C30.6029 317.452 30.8629 317.788 30.9909 318.212H30.8589L30.9909 316.94H32.4309C32.4069 317.188 32.3829 317.44 32.3589 317.696C32.3429 317.952 32.3349 318.204 32.3349 318.452V323H30.8469L30.8349 321.752H30.9789C30.8509 322.168 30.5909 322.5 30.1989 322.748C29.8069 322.996 29.3629 323.12 28.8669 323.12ZM29.2869 321.968C29.7589 321.968 30.1389 321.804 30.4269 321.476C30.7149 321.14 30.8589 320.636 30.8589 319.964C30.8589 319.292 30.7149 318.792 30.4269 318.464C30.1389 318.136 29.7589 317.972 29.2869 317.972C28.8149 317.972 28.4349 318.136 28.1469 318.464C27.8589 318.792 27.7149 319.292 27.7149 319.964C27.7149 320.636 27.8549 321.14 28.1349 321.476C28.4229 321.804 28.8069 321.968 29.2869 321.968ZM36.1283 323.12C35.6083 323.12 35.1283 323.06 34.6883 322.94C34.2563 322.812 33.8923 322.636 33.5963 322.412L34.0163 321.404C34.3203 321.612 34.6563 321.772 35.0243 321.884C35.3923 321.996 35.7643 322.052 36.1403 322.052C36.5403 322.052 36.8363 321.984 37.0283 321.848C37.2283 321.712 37.3283 321.528 37.3283 321.296C37.3283 321.112 37.2643 320.968 37.1363 320.864C37.0163 320.752 36.8203 320.668 36.5483 320.612L35.3483 320.384C34.8363 320.272 34.4443 320.08 34.1723 319.808C33.9083 319.536 33.7763 319.18 33.7763 318.74C33.7763 318.364 33.8763 318.032 34.0763 317.744C34.2843 317.456 34.5763 317.232 34.9523 317.072C35.3363 316.904 35.7843 316.82 36.2963 316.82C36.7443 316.82 37.1643 316.88 37.5563 317C37.9563 317.12 38.2923 317.3 38.5643 317.54L38.1323 318.512C37.8843 318.312 37.6003 318.156 37.2803 318.044C36.9603 317.932 36.6483 317.876 36.3443 317.876C35.9283 317.876 35.6243 317.952 35.4323 318.104C35.2403 318.248 35.1443 318.436 35.1443 318.668C35.1443 318.844 35.2003 318.992 35.3123 319.112C35.4323 319.224 35.6163 319.308 35.8643 319.364L37.0643 319.592C37.6003 319.696 38.0043 319.88 38.2763 320.144C38.5563 320.4 38.6963 320.752 38.6963 321.2C38.6963 321.6 38.5883 321.944 38.3723 322.232C38.1563 322.52 37.8563 322.74 37.4723 322.892C37.0883 323.044 36.6403 323.12 36.1283 323.12ZM42.1401 323.12C41.6201 323.12 41.1401 323.06 40.7001 322.94C40.2681 322.812 39.9041 322.636 39.6081 322.412L40.0281 321.404C40.3321 321.612 40.6681 321.772 41.0361 321.884C41.4041 321.996 41.7761 322.052 42.1521 322.052C42.5521 322.052 42.8481 321.984 43.0401 321.848C43.2401 321.712 43.3401 321.528 43.3401 321.296C43.3401 321.112 43.2761 320.968 43.1481 320.864C43.0281 320.752 42.8321 320.668 42.5601 320.612L41.3601 320.384C40.8481 320.272 40.4561 320.08 40.1841 319.808C39.9201 319.536 39.7881 319.18 39.7881 318.74C39.7881 318.364 39.8881 318.032 40.0881 317.744C40.2961 317.456 40.5881 317.232 40.9641 317.072C41.3481 316.904 41.7961 316.82 42.3081 316.82C42.7561 316.82 43.1761 316.88 43.5681 317C43.9681 317.12 44.3041 317.3 44.5761 317.54L44.1441 318.512C43.8961 318.312 43.6121 318.156 43.2921 318.044C42.9721 317.932 42.6601 317.876 42.3561 317.876C41.9401 317.876 41.6361 317.952 41.4441 318.104C41.2521 318.248 41.1561 318.436 41.1561 318.668C41.1561 318.844 41.2121 318.992 41.3241 319.112C41.4441 319.224 41.6281 319.308 41.8761 319.364L43.0761 319.592C43.6121 319.696 44.0161 319.88 44.2881 320.144C44.5681 320.4 44.7081 320.752 44.7081 321.2C44.7081 321.6 44.6001 321.944 44.3841 322.232C44.1681 322.52 43.8681 322.74 43.4841 322.892C43.1001 323.044 42.6521 323.12 42.1401 323.12ZM47.5546 323L45.1906 316.94H46.7386L48.4426 321.656H48.1306L49.8586 316.94H50.9266L52.6426 321.656H52.3666L54.0586 316.94H55.5226L53.1586 323H51.8386L50.0266 318.176H50.6626L48.8866 323H47.5546ZM59.0872 323.12C58.4632 323.12 57.9232 322.992 57.4672 322.736C57.0112 322.48 56.6552 322.116 56.3992 321.644C56.1512 321.172 56.0272 320.612 56.0272 319.964C56.0272 319.316 56.1512 318.76 56.3992 318.296C56.6552 317.824 57.0112 317.46 57.4672 317.204C57.9232 316.948 58.4632 316.82 59.0872 316.82C59.7112 316.82 60.2512 316.948 60.7072 317.204C61.1712 317.46 61.5272 317.824 61.7752 318.296C62.0312 318.76 62.1592 319.316 62.1592 319.964C62.1592 320.612 62.0312 321.172 61.7752 321.644C61.5272 322.116 61.1712 322.48 60.7072 322.736C60.2512 322.992 59.7112 323.12 59.0872 323.12ZM59.0872 321.968C59.5592 321.968 59.9352 321.804 60.2152 321.476C60.4952 321.14 60.6352 320.636 60.6352 319.964C60.6352 319.292 60.4952 318.792 60.2152 318.464C59.9352 318.136 59.5592 317.972 59.0872 317.972C58.6152 317.972 58.2392 318.136 57.9592 318.464C57.6792 318.792 57.5392 319.292 57.5392 319.964C57.5392 320.636 57.6792 321.14 57.9592 321.476C58.2392 321.804 58.6152 321.968 59.0872 321.968ZM63.4407 323V318.488C63.4407 318.232 63.4327 317.972 63.4167 317.708C63.4087 317.444 63.3887 317.188 63.3567 316.94H64.8087L64.9767 318.596H64.7367C64.8167 318.196 64.9487 317.864 65.1327 317.6C65.3247 317.336 65.5567 317.14 65.8287 317.012C66.1007 316.884 66.3967 316.82 66.7167 316.82C66.8607 316.82 66.9767 316.828 67.0647 316.844C67.1527 316.852 67.2407 316.872 67.3287 316.904L67.3167 318.224C67.1647 318.16 67.0327 318.12 66.9207 318.104C66.8167 318.088 66.6847 318.08 66.5247 318.08C66.1807 318.08 65.8887 318.152 65.6487 318.296C65.4167 318.44 65.2407 318.64 65.1207 318.896C65.0087 319.152 64.9527 319.444 64.9527 319.772V323H63.4407ZM70.4219 323.12C69.8939 323.12 69.4259 322.996 69.0179 322.748C68.6179 322.492 68.3059 322.128 68.0819 321.656C67.8579 321.184 67.7459 320.62 67.7459 319.964C67.7459 319.308 67.8579 318.748 68.0819 318.284C68.3059 317.812 68.6179 317.452 69.0179 317.204C69.4259 316.948 69.8939 316.82 70.4219 316.82C70.9259 316.82 71.3699 316.944 71.7539 317.192C72.1459 317.432 72.4059 317.76 72.5339 318.176H72.3779V314.168H73.8779V323H72.4019V321.716H72.5459C72.4179 322.148 72.1579 322.492 71.7659 322.748C71.3819 322.996 70.9339 323.12 70.4219 323.12ZM70.8419 321.968C71.3139 321.968 71.6939 321.804 71.9819 321.476C72.2699 321.14 72.4139 320.636 72.4139 319.964C72.4139 319.292 72.2699 318.792 71.9819 318.464C71.6939 318.136 71.3139 317.972 70.8419 317.972C70.3699 317.972 69.9859 318.136 69.6899 318.464C69.4019 318.792 69.2579 319.292 69.2579 319.964C69.2579 320.636 69.4019 321.14 69.6899 321.476C69.9859 321.804 70.3699 321.968 70.8419 321.968Z" fill="black"/>
<path d="M79.7523 318.812L78.9003 318.188L80.0163 316.796L78.2883 316.316L78.6243 315.308L80.2803 315.944L80.1963 314.168H81.2643L81.1803 315.944L82.8483 315.308L83.1723 316.316L81.4563 316.784L82.5723 318.188L81.7083 318.812L80.7363 317.312L79.7523 318.812Z" fill="#FF0000"/>
<rect x="18.5" y="260.5" width="344" height="29" rx="9.5" stroke="#D9D9D9"/>
<path d="M38.3887 279.09C37.5887 279.09 36.9753 278.78 36.5487 278.16C36.122 277.54 35.9087 276.643 35.9087 275.47C35.9087 274.29 36.122 273.393 36.5487 272.78C36.9753 272.167 37.5887 271.86 38.3887 271.86C39.1953 271.86 39.8087 272.167 40.2287 272.78C40.6553 273.393 40.8687 274.287 40.8687 275.46C40.8687 276.64 40.6553 277.54 40.2287 278.16C39.802 278.78 39.1887 279.09 38.3887 279.09ZM38.3887 278.37C38.9487 278.37 39.3653 278.133 39.6387 277.66C39.912 277.187 40.0487 276.453 40.0487 275.46C40.0487 274.46 39.912 273.73 39.6387 273.27C39.3653 272.803 38.9487 272.57 38.3887 272.57C37.8353 272.57 37.4187 272.803 37.1387 273.27C36.8653 273.737 36.7287 274.467 36.7287 275.46C36.7287 276.453 36.8653 277.187 37.1387 277.66C37.4187 278.133 37.8353 278.37 38.3887 278.37ZM44.3848 279.09C43.5781 279.09 42.9548 278.92 42.5148 278.58C42.0748 278.233 41.8548 277.75 41.8548 277.13C41.8548 276.643 42.0048 276.24 42.3048 275.92C42.6048 275.593 43.0014 275.397 43.4948 275.33V275.48C43.0481 275.387 42.6914 275.183 42.4248 274.87C42.1581 274.55 42.0248 274.173 42.0248 273.74C42.0248 273.147 42.2348 272.687 42.6548 272.36C43.0748 272.027 43.6514 271.86 44.3848 271.86C45.1248 271.86 45.7048 272.027 46.1248 272.36C46.5448 272.687 46.7548 273.147 46.7548 273.74C46.7548 274.173 46.6281 274.55 46.3748 274.87C46.1281 275.19 45.7814 275.39 45.3348 275.47V275.33C45.8214 275.397 46.2081 275.593 46.4948 275.92C46.7814 276.24 46.9248 276.643 46.9248 277.13C46.9248 277.75 46.7048 278.233 46.2648 278.58C45.8248 278.92 45.1981 279.09 44.3848 279.09ZM44.3848 278.41C44.9714 278.41 45.4081 278.3 45.6948 278.08C45.9881 277.86 46.1348 277.527 46.1348 277.08C46.1348 276.64 45.9881 276.313 45.6948 276.1C45.4081 275.88 44.9714 275.77 44.3848 275.77C43.7981 275.77 43.3581 275.88 43.0648 276.1C42.7781 276.313 42.6348 276.64 42.6348 277.08C42.6348 277.527 42.7814 277.86 43.0748 278.08C43.3681 278.3 43.8048 278.41 44.3848 278.41ZM44.3848 275.09C44.8914 275.09 45.2781 274.977 45.5448 274.75C45.8181 274.523 45.9548 274.21 45.9548 273.81C45.9548 273.41 45.8181 273.1 45.5448 272.88C45.2781 272.653 44.8914 272.54 44.3848 272.54C43.8781 272.54 43.4881 272.653 43.2148 272.88C42.9481 273.1 42.8148 273.41 42.8148 273.81C42.8148 274.21 42.9481 274.523 43.2148 274.75C43.4881 274.977 43.8781 275.09 44.3848 275.09ZM48.6509 279V278.29H50.3109V272.66H50.7509L48.8109 273.87V273.04L50.5409 271.95H51.1409V278.29H52.7009V279H48.6509ZM56.337 279.09C55.8636 279.09 55.4103 279.017 54.977 278.87C54.5436 278.723 54.1803 278.513 53.887 278.24L54.197 277.6C54.5236 277.867 54.8603 278.06 55.207 278.18C55.5536 278.3 55.927 278.36 56.327 278.36C56.8536 278.36 57.2536 278.25 57.527 278.03C57.8003 277.803 57.937 277.473 57.937 277.04C57.937 276.627 57.797 276.313 57.517 276.1C57.237 275.88 56.827 275.77 56.287 275.77H55.227V275.08H56.217C56.6836 275.08 57.0536 274.96 57.327 274.72C57.6003 274.48 57.737 274.153 57.737 273.74C57.737 273.367 57.6103 273.083 57.357 272.89C57.1103 272.69 56.7536 272.59 56.287 272.59C55.527 272.59 54.8703 272.86 54.317 273.4L54.007 272.75C54.2803 272.47 54.6236 272.253 55.037 272.1C55.4503 271.94 55.8836 271.86 56.337 271.86C57.0303 271.86 57.5736 272.02 57.967 272.34C58.3603 272.66 58.557 273.103 58.557 273.67C58.557 274.103 58.4336 274.477 58.187 274.79C57.9403 275.097 57.607 275.307 57.187 275.42V275.31C57.687 275.39 58.0736 275.59 58.347 275.91C58.6203 276.223 58.757 276.62 58.757 277.1C58.757 277.713 58.5403 278.2 58.107 278.56C57.6803 278.913 57.0903 279.09 56.337 279.09ZM62.503 279.09C62.1964 279.09 61.8964 279.057 61.603 278.99C61.3097 278.923 61.033 278.827 60.773 278.7C60.5197 278.573 60.2964 278.42 60.103 278.24L60.413 277.6C60.7397 277.86 61.073 278.053 61.413 278.18C61.753 278.3 62.1164 278.36 62.503 278.36C63.0097 278.36 63.4064 278.223 63.693 277.95C63.9797 277.677 64.123 277.317 64.123 276.87C64.123 276.41 63.9864 276.033 63.713 275.74C63.4397 275.447 63.0597 275.3 62.573 275.3C62.2264 275.3 61.9164 275.37 61.643 275.51C61.3697 275.643 61.133 275.853 60.933 276.14H60.333V271.95H64.513V272.65H61.133V275.46H60.913C61.093 275.18 61.3397 274.967 61.653 274.82C61.973 274.667 62.333 274.59 62.733 274.59C63.1864 274.59 63.5764 274.683 63.903 274.87C64.2364 275.057 64.493 275.317 64.673 275.65C64.853 275.983 64.943 276.373 64.943 276.82C64.943 277.267 64.843 277.663 64.643 278.01C64.4497 278.35 64.1697 278.617 63.803 278.81C63.443 278.997 63.0097 279.09 62.503 279.09ZM68.5991 279.09C67.7458 279.09 67.0858 278.79 66.6191 278.19C66.1591 277.583 65.9291 276.737 65.9291 275.65C65.9291 274.837 66.0458 274.15 66.2791 273.59C66.5125 273.023 66.8458 272.593 67.2791 272.3C67.7125 272.007 68.2358 271.86 68.8491 271.86C69.2158 271.86 69.5858 271.937 69.9591 272.09C70.3325 272.237 70.6391 272.443 70.8791 272.71L70.5791 273.35C70.3258 273.09 70.0491 272.9 69.7491 272.78C69.4491 272.653 69.1458 272.59 68.8391 272.59C68.1591 272.59 67.6358 272.833 67.2691 273.32C66.9091 273.8 66.7291 274.523 66.7291 275.49V276.42H66.6391C66.6858 276.04 66.7991 275.713 66.9791 275.44C67.1658 275.16 67.4091 274.947 67.7091 274.8C68.0091 274.653 68.3425 274.58 68.7091 274.58C69.1358 274.58 69.5125 274.673 69.8391 274.86C70.1658 275.047 70.4225 275.31 70.6091 275.65C70.7958 275.983 70.8891 276.367 70.8891 276.8C70.8891 277.24 70.7925 277.633 70.5991 277.98C70.4058 278.327 70.1358 278.6 69.7891 278.8C69.4425 278.993 69.0458 279.09 68.5991 279.09ZM68.5391 278.39C68.8458 278.39 69.1158 278.327 69.3491 278.2C69.5891 278.067 69.7725 277.883 69.8991 277.65C70.0325 277.41 70.0991 277.137 70.0991 276.83C70.0991 276.523 70.0325 276.253 69.8991 276.02C69.7725 275.787 69.5891 275.603 69.3491 275.47C69.1158 275.337 68.8458 275.27 68.5391 275.27C68.2325 275.27 67.9625 275.337 67.7291 275.47C67.4958 275.603 67.3125 275.787 67.1791 276.02C67.0525 276.253 66.9891 276.523 66.9891 276.83C66.9891 277.137 67.0525 277.41 67.1791 277.65C67.3125 277.883 67.4958 278.067 67.7291 278.2C67.9625 278.327 68.2325 278.39 68.5391 278.39ZM72.7352 275.36L72.2352 275L73.2152 273.73L71.6752 273.28L71.8752 272.69L73.3752 273.23L73.3152 271.64H73.9452L73.8952 273.24L75.4052 272.69L75.5952 273.28L74.0652 273.73L75.0452 275L74.5352 275.36L73.6452 274.03L72.7352 275.36ZM77.2763 275.36L76.7763 275L77.7563 273.73L76.2163 273.28L76.4163 272.69L77.9163 273.23L77.8563 271.64H78.4863L78.4363 273.24L79.9463 272.69L80.1363 273.28L78.6063 273.73L79.5863 275L79.0763 275.36L78.1863 274.03L77.2763 275.36ZM81.8173 275.36L81.3173 275L82.2973 273.73L80.7573 273.28L80.9573 272.69L82.4573 273.23L82.3973 271.64H83.0273L82.9773 273.24L84.4873 272.69L84.6773 273.28L83.1473 273.73L84.1273 275L83.6173 275.36L82.7273 274.03L81.8173 275.36ZM86.3583 275.36L85.8583 275L86.8383 273.73L85.2983 273.28L85.4983 272.69L86.9983 273.23L86.9383 271.64H87.5683L87.5183 273.24L89.0283 272.69L89.2183 273.28L87.6883 273.73L88.6683 275L88.1583 275.36L87.2683 274.03L86.3583 275.36ZM90.8993 275.36L90.3993 275L91.3793 273.73L89.8393 273.28L90.0393 272.69L91.5393 273.23L91.4793 271.64H92.1093L92.0593 273.24L93.5693 272.69L93.7593 273.28L92.2293 273.73L93.2093 275L92.6993 275.36L91.8093 274.03L90.8993 275.36ZM95.4403 275.36L94.9403 275L95.9203 273.73L94.3803 273.28L94.5803 272.69L96.0803 273.23L96.0203 271.64H96.6503L96.6003 273.24L98.1103 272.69L98.3003 273.28L96.7703 273.73L97.7503 275L97.2403 275.36L96.3503 274.03L95.4403 275.36Z" fill="#616161"/>
<path d="M330.026 268.261C330.43 267.857 330.972 267.622 331.543 267.603C332.114 267.584 332.671 267.784 333.101 268.16L333.208 268.261L333.739 268.792C334.142 269.195 334.378 269.738 334.396 270.308C334.415 270.879 334.216 271.435 333.84 271.865L333.739 271.973L325.33 280.383C325.211 280.502 325.067 280.592 324.908 280.648L324.787 280.684L321.446 281.455C321.329 281.482 321.207 281.48 321.091 281.451C320.974 281.421 320.867 281.364 320.777 281.284C320.687 281.204 320.618 281.103 320.576 280.991C320.533 280.879 320.518 280.758 320.531 280.639L320.546 280.554L321.316 277.213C321.355 277.049 321.429 276.895 321.534 276.764L321.617 276.67L330.026 268.261ZM329.496 270.913L322.753 277.655L322.276 279.724L324.345 279.246L331.087 272.503L329.496 270.913ZM332.148 269.322C332.019 269.193 331.847 269.115 331.665 269.104C331.482 269.092 331.302 269.148 331.158 269.26L331.087 269.322L330.556 269.852L332.148 271.443L332.678 270.913C332.807 270.783 332.885 270.612 332.896 270.429C332.908 270.247 332.852 270.067 332.74 269.923L332.678 269.852L332.148 269.322Z" fill="#757575"/>
<path d="M18.936 245V236.54H20.1L25.008 242.888H24.696V236.54H26.136V245H24.972L20.076 238.652H20.376V245H18.936ZM30.6106 245.12C29.9866 245.12 29.4466 244.992 28.9906 244.736C28.5346 244.48 28.1786 244.116 27.9226 243.644C27.6746 243.172 27.5506 242.612 27.5506 241.964C27.5506 241.316 27.6746 240.76 27.9226 240.296C28.1786 239.824 28.5346 239.46 28.9906 239.204C29.4466 238.948 29.9866 238.82 30.6106 238.82C31.2346 238.82 31.7746 238.948 32.2306 239.204C32.6946 239.46 33.0506 239.824 33.2986 240.296C33.5546 240.76 33.6826 241.316 33.6826 241.964C33.6826 242.612 33.5546 243.172 33.2986 243.644C33.0506 244.116 32.6946 244.48 32.2306 244.736C31.7746 244.992 31.2346 245.12 30.6106 245.12ZM30.6106 243.968C31.0826 243.968 31.4586 243.804 31.7386 243.476C32.0186 243.14 32.1586 242.636 32.1586 241.964C32.1586 241.292 32.0186 240.792 31.7386 240.464C31.4586 240.136 31.0826 239.972 30.6106 239.972C30.1386 239.972 29.7626 240.136 29.4826 240.464C29.2026 240.792 29.0626 241.292 29.0626 241.964C29.0626 242.636 29.2026 243.14 29.4826 243.476C29.7626 243.804 30.1386 243.968 30.6106 243.968ZM34.5855 245V243.332H36.2655V245H34.5855ZM41.143 245V236.54H42.691V240.068H47.023V236.54H48.571V245H47.023V241.352H42.691V245H41.143ZM52.656 245.12C52.128 245.12 51.664 244.996 51.264 244.748C50.864 244.492 50.552 244.128 50.328 243.656C50.104 243.184 49.992 242.62 49.992 241.964C49.992 241.308 50.104 240.748 50.328 240.284C50.552 239.812 50.864 239.452 51.264 239.204C51.664 238.948 52.128 238.82 52.656 238.82C53.168 238.82 53.616 238.948 54 239.204C54.392 239.452 54.652 239.788 54.78 240.212H54.648L54.78 238.94H56.22C56.196 239.188 56.172 239.44 56.148 239.696C56.132 239.952 56.124 240.204 56.124 240.452V245H54.636L54.624 243.752H54.768C54.64 244.168 54.38 244.5 53.988 244.748C53.596 244.996 53.152 245.12 52.656 245.12ZM53.076 243.968C53.548 243.968 53.928 243.804 54.216 243.476C54.504 243.14 54.648 242.636 54.648 241.964C54.648 241.292 54.504 240.792 54.216 240.464C53.928 240.136 53.548 239.972 53.076 239.972C52.604 239.972 52.224 240.136 51.936 240.464C51.648 240.792 51.504 241.292 51.504 241.964C51.504 242.636 51.644 243.14 51.924 243.476C52.212 243.804 52.596 243.968 53.076 243.968ZM57.7574 245V240.452C57.7574 240.204 57.7494 239.952 57.7334 239.696C57.7174 239.44 57.6934 239.188 57.6614 238.94H59.1134L59.2334 240.14H59.0894C59.2814 239.716 59.5654 239.392 59.9414 239.168C60.3174 238.936 60.7534 238.82 61.2494 238.82C61.9614 238.82 62.4974 239.02 62.8574 239.42C63.2174 239.82 63.3974 240.444 63.3974 241.292V245H61.8974V241.364C61.8974 240.876 61.8014 240.528 61.6094 240.32C61.4254 240.104 61.1454 239.996 60.7694 239.996C60.3054 239.996 59.9374 240.14 59.6654 240.428C59.3934 240.716 59.2574 241.1 59.2574 241.58V245H57.7574ZM67.3399 245.12C66.8119 245.12 66.3439 244.996 65.9359 244.748C65.5359 244.492 65.2239 244.128 64.9999 243.656C64.7759 243.184 64.6639 242.62 64.6639 241.964C64.6639 241.308 64.7759 240.748 64.9999 240.284C65.2239 239.812 65.5359 239.452 65.9359 239.204C66.3439 238.948 66.8119 238.82 67.3399 238.82C67.8439 238.82 68.2879 238.944 68.6719 239.192C69.0639 239.432 69.3239 239.76 69.4519 240.176H69.2959V236.168H70.7959V245H69.3199V243.716H69.4639C69.3359 244.148 69.0759 244.492 68.6839 244.748C68.2999 244.996 67.8519 245.12 67.3399 245.12ZM67.7599 243.968C68.2319 243.968 68.6119 243.804 68.8999 243.476C69.1879 243.14 69.3319 242.636 69.3319 241.964C69.3319 241.292 69.1879 240.792 68.8999 240.464C68.6119 240.136 68.2319 239.972 67.7599 239.972C67.2879 239.972 66.9039 240.136 66.6079 240.464C66.3199 240.792 66.1759 241.292 66.1759 241.964C66.1759 242.636 66.3199 243.14 66.6079 243.476C66.9039 243.804 67.2879 243.968 67.7599 243.968ZM72.4293 247.592V240.452C72.4293 240.204 72.4213 239.952 72.4053 239.696C72.3893 239.44 72.3653 239.188 72.3333 238.94H73.7853L73.9173 240.212H73.7853C73.9053 239.788 74.1573 239.452 74.5413 239.204C74.9333 238.948 75.3853 238.82 75.8973 238.82C76.4333 238.82 76.9013 238.948 77.3013 239.204C77.7013 239.452 78.0133 239.812 78.2373 240.284C78.4613 240.748 78.5733 241.308 78.5733 241.964C78.5733 242.62 78.4613 243.184 78.2373 243.656C78.0133 244.128 77.7013 244.492 77.3013 244.748C76.9013 244.996 76.4333 245.12 75.8973 245.12C75.3933 245.12 74.9493 244.996 74.5653 244.748C74.1813 244.5 73.9253 244.168 73.7973 243.752H73.9293V247.592H72.4293ZM75.4773 243.968C75.9573 243.968 76.3413 243.804 76.6293 243.476C76.9173 243.14 77.0613 242.636 77.0613 241.964C77.0613 241.292 76.9173 240.792 76.6293 240.464C76.3413 240.136 75.9573 239.972 75.4773 239.972C75.0053 239.972 74.6253 240.136 74.3373 240.464C74.0493 240.792 73.9053 241.292 73.9053 241.964C73.9053 242.636 74.0493 243.14 74.3373 243.476C74.6253 243.804 75.0053 243.968 75.4773 243.968ZM79.8707 245V236.168H81.3707V240.152H81.2027C81.3867 239.72 81.6707 239.392 82.0547 239.168C82.4387 238.936 82.8787 238.82 83.3747 238.82C84.0947 238.82 84.6307 239.024 84.9827 239.432C85.3347 239.832 85.5107 240.444 85.5107 241.268V245H84.0107V241.34C84.0107 240.868 83.9187 240.528 83.7347 240.32C83.5587 240.104 83.2747 239.996 82.8827 239.996C82.4267 239.996 82.0587 240.14 81.7787 240.428C81.5067 240.708 81.3707 241.084 81.3707 241.556V245H79.8707ZM89.8372 245.12C89.2132 245.12 88.6732 244.992 88.2172 244.736C87.7612 244.48 87.4052 244.116 87.1492 243.644C86.9012 243.172 86.7772 242.612 86.7772 241.964C86.7772 241.316 86.9012 240.76 87.1492 240.296C87.4052 239.824 87.7612 239.46 88.2172 239.204C88.6732 238.948 89.2132 238.82 89.8372 238.82C90.4612 238.82 91.0012 238.948 91.4572 239.204C91.9212 239.46 92.2772 239.824 92.5252 240.296C92.7812 240.76 92.9092 241.316 92.9092 241.964C92.9092 242.612 92.7812 243.172 92.5252 243.644C92.2772 244.116 91.9212 244.48 91.4572 244.736C91.0012 244.992 90.4612 245.12 89.8372 245.12ZM89.8372 243.968C90.3092 243.968 90.6852 243.804 90.9652 243.476C91.2452 243.14 91.3852 242.636 91.3852 241.964C91.3852 241.292 91.2452 240.792 90.9652 240.464C90.6852 240.136 90.3092 239.972 89.8372 239.972C89.3652 239.972 88.9892 240.136 88.7092 240.464C88.4292 240.792 88.2892 241.292 88.2892 241.964C88.2892 242.636 88.4292 243.14 88.7092 243.476C88.9892 243.804 89.3652 243.968 89.8372 243.968ZM94.2027 245V240.452C94.2027 240.204 94.1947 239.952 94.1787 239.696C94.1627 239.44 94.1387 239.188 94.1067 238.94H95.5587L95.6787 240.14H95.5347C95.7267 239.716 96.0107 239.392 96.3867 239.168C96.7627 238.936 97.1987 238.82 97.6947 238.82C98.4067 238.82 98.9427 239.02 99.3027 239.42C99.6627 239.82 99.8427 240.444 99.8427 241.292V245H98.3427V241.364C98.3427 240.876 98.2467 240.528 98.0547 240.32C97.8707 240.104 97.5907 239.996 97.2147 239.996C96.7507 239.996 96.3827 240.14 96.1107 240.428C95.8387 240.716 95.7027 241.1 95.7027 241.58V245H94.2027ZM104.361 245.12C103.345 245.12 102.549 244.84 101.973 244.28C101.397 243.72 101.109 242.952 101.109 241.976C101.109 241.344 101.233 240.792 101.481 240.32C101.729 239.848 102.073 239.48 102.513 239.216C102.961 238.952 103.481 238.82 104.073 238.82C104.657 238.82 105.145 238.944 105.537 239.192C105.929 239.44 106.225 239.788 106.425 240.236C106.633 240.684 106.737 241.208 106.737 241.808V242.204H102.321V241.412H105.669L105.465 241.58C105.465 241.02 105.345 240.592 105.105 240.296C104.873 240 104.533 239.852 104.085 239.852C103.589 239.852 103.205 240.028 102.933 240.38C102.669 240.732 102.537 241.224 102.537 241.856V242.012C102.537 242.668 102.697 243.16 103.017 243.488C103.345 243.808 103.805 243.968 104.397 243.968C104.741 243.968 105.061 243.924 105.357 243.836C105.661 243.74 105.949 243.588 106.221 243.38L106.665 244.388C106.377 244.62 106.033 244.8 105.633 244.928C105.233 245.056 104.809 245.12 104.361 245.12Z" fill="black"/>
<path d="M112.248 240.812L111.396 240.188L112.512 238.796L110.784 238.316L111.12 237.308L112.776 237.944L112.692 236.168H113.76L113.676 237.944L115.344 237.308L115.668 238.316L113.952 238.784L115.068 240.188L114.204 240.812L113.232 239.312L112.248 240.812Z" fill="#FF0000"/>
<rect x="18.5" y="180.5" width="344" height="29" rx="9.5" stroke="#D9D9D9"/>
<path d="M37.7547 198.09C37.308 198.09 36.918 197.987 36.5847 197.78C36.2514 197.567 35.9914 197.267 35.8047 196.88C35.6247 196.493 35.5347 196.03 35.5347 195.49C35.5347 194.943 35.6247 194.477 35.8047 194.09C35.9914 193.703 36.2514 193.407 36.5847 193.2C36.918 192.993 37.308 192.89 37.7547 192.89C38.208 192.89 38.598 193.007 38.9247 193.24C39.258 193.467 39.478 193.777 39.5847 194.17H39.4647L39.5747 192.98H40.3547C40.3347 193.173 40.3147 193.37 40.2947 193.57C40.2814 193.763 40.2747 193.953 40.2747 194.14V198H39.4647V196.82H39.5747C39.468 197.213 39.248 197.523 38.9147 197.75C38.5814 197.977 38.1947 198.09 37.7547 198.09ZM37.9147 197.43C38.3947 197.43 38.7747 197.267 39.0547 196.94C39.3347 196.607 39.4747 196.123 39.4747 195.49C39.4747 194.85 39.3347 194.367 39.0547 194.04C38.7747 193.707 38.3947 193.54 37.9147 193.54C37.4414 193.54 37.0614 193.707 36.7747 194.04C36.4947 194.367 36.3547 194.85 36.3547 195.49C36.3547 196.123 36.4947 196.607 36.7747 196.94C37.0614 197.267 37.4414 197.43 37.9147 197.43ZM44.0508 200.23C43.6174 200.23 43.2174 200.177 42.8508 200.07C42.4841 199.963 42.1541 199.8 41.8608 199.58L42.1008 198.97C42.3074 199.117 42.5108 199.233 42.7108 199.32C42.9108 199.407 43.1174 199.47 43.3308 199.51C43.5441 199.557 43.7708 199.58 44.0108 199.58C44.5041 199.58 44.8774 199.45 45.1308 199.19C45.3841 198.93 45.5108 198.56 45.5108 198.08V196.61H45.6108C45.5041 197.003 45.2841 197.317 44.9508 197.55C44.6174 197.777 44.2274 197.89 43.7808 197.89C43.3208 197.89 42.9208 197.79 42.5808 197.59C42.2474 197.383 41.9874 197.093 41.8008 196.72C41.6208 196.34 41.5308 195.893 41.5308 195.38C41.5308 194.873 41.6208 194.433 41.8008 194.06C41.9874 193.687 42.2474 193.4 42.5808 193.2C42.9208 192.993 43.3208 192.89 43.7808 192.89C44.2341 192.89 44.6241 193.003 44.9508 193.23C45.2841 193.457 45.5041 193.77 45.6108 194.17L45.5108 194.07L45.6008 192.98H46.3908C46.3641 193.173 46.3441 193.37 46.3308 193.57C46.3174 193.763 46.3108 193.953 46.3108 194.14V197.97C46.3108 198.717 46.1174 199.28 45.7308 199.66C45.3508 200.04 44.7908 200.23 44.0508 200.23ZM43.9308 197.23C44.4174 197.23 44.8008 197.07 45.0808 196.75C45.3608 196.423 45.5008 195.967 45.5008 195.38C45.5008 194.793 45.3608 194.34 45.0808 194.02C44.8008 193.7 44.4174 193.54 43.9308 193.54C43.4508 193.54 43.0674 193.7 42.7808 194.02C42.4941 194.34 42.3508 194.793 42.3508 195.38C42.3508 195.967 42.4941 196.423 42.7808 196.75C43.0674 197.07 43.4508 197.23 43.9308 197.23ZM47.8662 198V194.14C47.8662 193.953 47.8562 193.763 47.8362 193.57C47.8228 193.37 47.8062 193.173 47.7862 192.98H48.5662L48.6662 194.08H48.5462C48.6928 193.693 48.9262 193.4 49.2462 193.2C49.5728 192.993 49.9495 192.89 50.3762 192.89C50.9695 192.89 51.4162 193.05 51.7162 193.37C52.0228 193.683 52.1762 194.18 52.1762 194.86V198H51.3662V194.91C51.3662 194.437 51.2695 194.093 51.0762 193.88C50.8895 193.66 50.5962 193.55 50.1962 193.55C49.7295 193.55 49.3595 193.693 49.0862 193.98C48.8128 194.267 48.6762 194.65 48.6762 195.13V198H47.8662ZM55.9555 198.09C55.1689 198.09 54.5489 197.863 54.0955 197.41C53.6422 196.95 53.4155 196.313 53.4155 195.5C53.4155 194.973 53.5155 194.517 53.7155 194.13C53.9155 193.737 54.1955 193.433 54.5555 193.22C54.9155 193 55.3289 192.89 55.7955 192.89C56.2555 192.89 56.6422 192.987 56.9555 193.18C57.2689 193.373 57.5089 193.65 57.6755 194.01C57.8422 194.363 57.9255 194.783 57.9255 195.27V195.57H54.0355V195.06H57.3955L57.2255 195.19C57.2255 194.657 57.1055 194.24 56.8655 193.94C56.6255 193.64 56.2689 193.49 55.7955 193.49C55.2955 193.49 54.9055 193.667 54.6255 194.02C54.3455 194.367 54.2055 194.837 54.2055 195.43V195.52C54.2055 196.147 54.3589 196.623 54.6655 196.95C54.9789 197.27 55.4155 197.43 55.9755 197.43C56.2755 197.43 56.5555 197.387 56.8155 197.3C57.0822 197.207 57.3355 197.057 57.5755 196.85L57.8555 197.42C57.6355 197.633 57.3555 197.8 57.0155 197.92C56.6822 198.033 56.3289 198.09 55.9555 198.09ZM60.835 198.09C60.435 198.09 60.0617 198.037 59.715 197.93C59.3683 197.817 59.0817 197.66 58.855 197.46L59.135 196.89C59.3817 197.083 59.6483 197.227 59.935 197.32C60.2283 197.413 60.5317 197.46 60.845 197.46C61.245 197.46 61.545 197.39 61.745 197.25C61.9517 197.103 62.055 196.903 62.055 196.65C62.055 196.457 61.9883 196.303 61.855 196.19C61.7283 196.07 61.5183 195.977 61.225 195.91L60.295 195.72C59.8683 195.627 59.5483 195.47 59.335 195.25C59.1217 195.023 59.015 194.737 59.015 194.39C59.015 194.097 59.0917 193.84 59.245 193.62C59.3983 193.393 59.6217 193.217 59.915 193.09C60.2083 192.957 60.5517 192.89 60.945 192.89C61.3117 192.89 61.6483 192.947 61.955 193.06C62.2683 193.167 62.5283 193.323 62.735 193.53L62.445 194.09C62.245 193.897 62.015 193.753 61.755 193.66C61.5017 193.56 61.2383 193.51 60.965 193.51C60.5717 193.51 60.275 193.59 60.075 193.75C59.8817 193.903 59.785 194.107 59.785 194.36C59.785 194.553 59.845 194.713 59.965 194.84C60.0917 194.96 60.285 195.05 60.545 195.11L61.475 195.3C61.9283 195.4 62.265 195.557 62.485 195.77C62.7117 195.977 62.825 196.257 62.825 196.61C62.825 196.91 62.7417 197.173 62.575 197.4C62.4083 197.62 62.175 197.79 61.875 197.91C61.5817 198.03 61.235 198.09 60.835 198.09ZM64.1259 198V194.14C64.1259 193.953 64.1159 193.763 64.0959 193.57C64.0826 193.37 64.0659 193.173 64.0459 192.98H64.8259L64.9259 194.08H64.8059C64.9393 193.7 65.1493 193.407 65.4359 193.2C65.7293 192.993 66.0826 192.89 66.4959 192.89C66.9159 192.89 67.2559 192.99 67.5159 193.19C67.7826 193.39 67.9626 193.7 68.0559 194.12H67.9059C68.0326 193.74 68.2559 193.44 68.5759 193.22C68.8959 193 69.2693 192.89 69.6959 192.89C70.2493 192.89 70.6659 193.05 70.9459 193.37C71.2259 193.683 71.3659 194.18 71.3659 194.86V198H70.5559V194.91C70.5559 194.437 70.4726 194.093 70.3059 193.88C70.1393 193.66 69.8726 193.55 69.5059 193.55C69.0859 193.55 68.7526 193.697 68.5059 193.99C68.2659 194.277 68.1459 194.663 68.1459 195.15V198H67.3359V194.91C67.3359 194.437 67.2526 194.093 67.0859 193.88C66.9193 193.66 66.6526 193.55 66.2859 193.55C65.8659 193.55 65.5359 193.697 65.2959 193.99C65.0559 194.277 64.9359 194.663 64.9359 195.15V198H64.1259ZM74.9652 198.09C74.4852 198.09 74.0652 197.987 73.7052 197.78C73.3519 197.567 73.0786 197.267 72.8852 196.88C72.6919 196.487 72.5952 196.023 72.5952 195.49C72.5952 194.95 72.6919 194.487 72.8852 194.1C73.0786 193.713 73.3519 193.417 73.7052 193.21C74.0652 192.997 74.4852 192.89 74.9652 192.89C75.4519 192.89 75.8719 192.997 76.2252 193.21C76.5852 193.417 76.8619 193.713 77.0552 194.1C77.2552 194.487 77.3552 194.95 77.3552 195.49C77.3552 196.023 77.2552 196.487 77.0552 196.88C76.8619 197.267 76.5852 197.567 76.2252 197.78C75.8719 197.987 75.4519 198.09 74.9652 198.09ZM74.9652 197.43C75.4452 197.43 75.8252 197.267 76.1052 196.94C76.3852 196.607 76.5252 196.123 76.5252 195.49C76.5252 194.85 76.3819 194.367 76.0952 194.04C75.8152 193.707 75.4386 193.54 74.9652 193.54C74.4919 193.54 74.1152 193.707 73.8352 194.04C73.5552 194.367 73.4152 194.85 73.4152 195.49C73.4152 196.123 73.5552 196.607 73.8352 196.94C74.1152 197.267 74.4919 197.43 74.9652 197.43ZM79.0419 194.36L78.5419 194L79.5219 192.73L77.9819 192.28L78.1819 191.69L79.6819 192.23L79.6219 190.64H80.2519L80.2019 192.24L81.7119 191.69L81.9019 192.28L80.3719 192.73L81.3519 194L80.8419 194.36L79.9519 193.03L79.0419 194.36ZM83.5829 194.36L83.0829 194L84.0629 192.73L82.5229 192.28L82.7229 191.69L84.2229 192.23L84.1629 190.64H84.7929L84.7429 192.24L86.2529 191.69L86.4429 192.28L84.9129 192.73L85.8929 194L85.3829 194.36L84.4929 193.03L83.5829 194.36ZM88.1239 194.36L87.6239 194L88.6039 192.73L87.0639 192.28L87.2639 191.69L88.7639 192.23L88.7039 190.64H89.3339L89.2839 192.24L90.7939 191.69L90.9839 192.28L89.4539 192.73L90.4339 194L89.9239 194.36L89.0339 193.03L88.1239 194.36ZM96.2549 199.63C95.6016 199.63 95.0083 199.527 94.4749 199.32C93.9416 199.12 93.4849 198.83 93.1049 198.45C92.7249 198.07 92.4316 197.613 92.2249 197.08C92.0183 196.54 91.9149 195.94 91.9149 195.28C91.9149 194.62 92.0216 194.02 92.2349 193.48C92.4483 192.94 92.7549 192.477 93.1549 192.09C93.5549 191.697 94.0283 191.393 94.5749 191.18C95.1216 190.967 95.7249 190.86 96.3849 190.86C97.1849 190.86 97.8816 191.013 98.4749 191.32C99.0749 191.627 99.5416 192.06 99.8749 192.62C100.208 193.173 100.375 193.823 100.375 194.57C100.375 195.143 100.292 195.643 100.125 196.07C99.9583 196.497 99.7283 196.827 99.4349 197.06C99.1416 197.293 98.7949 197.41 98.3949 197.41C97.9949 197.41 97.6916 197.297 97.4849 197.07C97.2783 196.837 97.1916 196.523 97.2249 196.13L97.4049 196.18C97.2316 196.58 96.9883 196.887 96.6749 197.1C96.3683 197.307 96.0383 197.41 95.6849 197.41C95.1583 197.41 94.7483 197.25 94.4549 196.93C94.1683 196.603 94.0249 196.157 94.0249 195.59C94.0249 195.097 94.1183 194.66 94.3049 194.28C94.4983 193.893 94.7616 193.593 95.0949 193.38C95.4283 193.16 95.8083 193.05 96.2349 193.05C96.6149 193.05 96.9216 193.14 97.1549 193.32C97.3949 193.5 97.5516 193.753 97.6249 194.08H97.5049L97.6749 193.14H98.3349L97.8749 195.73C97.8616 195.817 97.8483 195.9 97.8349 195.98C97.8283 196.06 97.8249 196.133 97.8249 196.2C97.8249 196.42 97.8749 196.587 97.9749 196.7C98.0816 196.813 98.2383 196.87 98.4449 196.87C98.7116 196.87 98.9449 196.773 99.1449 196.58C99.3449 196.387 99.5016 196.12 99.6149 195.78C99.7283 195.433 99.7849 195.03 99.7849 194.57C99.7849 193.93 99.6449 193.377 99.3649 192.91C99.0849 192.437 98.6883 192.073 98.1749 191.82C97.6683 191.56 97.0716 191.43 96.3849 191.43C95.6183 191.43 94.9449 191.59 94.3649 191.91C93.7916 192.23 93.3449 192.68 93.0249 193.26C92.7116 193.833 92.5549 194.507 92.5549 195.28C92.5549 196.067 92.7049 196.743 93.0049 197.31C93.3049 197.877 93.7316 198.31 94.2849 198.61C94.8449 198.917 95.5016 199.07 96.2549 199.07C96.8083 199.07 97.3116 198.983 97.7649 198.81C98.2183 198.643 98.5916 198.403 98.8849 198.09L99.2149 198.58C98.8883 198.92 98.4649 199.18 97.9449 199.36C97.4316 199.54 96.8683 199.63 96.2549 199.63ZM95.7749 196.83C96.0816 196.83 96.3549 196.743 96.5949 196.57C96.8349 196.39 97.0216 196.143 97.1549 195.83C97.2949 195.517 97.3649 195.16 97.3649 194.76C97.3649 194.38 97.2816 194.097 97.1149 193.91C96.9483 193.723 96.6849 193.63 96.3249 193.63C96.0183 193.63 95.7416 193.713 95.4949 193.88C95.2549 194.047 95.0649 194.277 94.9249 194.57C94.7849 194.863 94.7149 195.203 94.7149 195.59C94.7149 195.99 94.8049 196.297 94.9849 196.51C95.1716 196.723 95.4349 196.83 95.7749 196.83ZM103.982 200.23C103.549 200.23 103.149 200.177 102.782 200.07C102.416 199.963 102.086 199.8 101.792 199.58L102.032 198.97C102.239 199.117 102.442 199.233 102.642 199.32C102.842 199.407 103.049 199.47 103.262 199.51C103.476 199.557 103.702 199.58 103.942 199.58C104.436 199.58 104.809 199.45 105.062 199.19C105.316 198.93 105.442 198.56 105.442 198.08V196.61H105.542C105.436 197.003 105.216 197.317 104.882 197.55C104.549 197.777 104.159 197.89 103.712 197.89C103.252 197.89 102.852 197.79 102.512 197.59C102.179 197.383 101.919 197.093 101.732 196.72C101.552 196.34 101.462 195.893 101.462 195.38C101.462 194.873 101.552 194.433 101.732 194.06C101.919 193.687 102.179 193.4 102.512 193.2C102.852 192.993 103.252 192.89 103.712 192.89C104.166 192.89 104.556 193.003 104.882 193.23C105.216 193.457 105.436 193.77 105.542 194.17L105.442 194.07L105.532 192.98H106.322C106.296 193.173 106.276 193.37 106.262 193.57C106.249 193.763 106.242 193.953 106.242 194.14V197.97C106.242 198.717 106.049 199.28 105.662 199.66C105.282 200.04 104.722 200.23 103.982 200.23ZM103.862 197.23C104.349 197.23 104.732 197.07 105.012 196.75C105.292 196.423 105.432 195.967 105.432 195.38C105.432 194.793 105.292 194.34 105.012 194.02C104.732 193.7 104.349 193.54 103.862 193.54C103.382 193.54 102.999 193.7 102.712 194.02C102.426 194.34 102.282 194.793 102.282 195.38C102.282 195.967 102.426 196.423 102.712 196.75C102.999 197.07 103.382 197.23 103.862 197.23ZM107.798 198V194.14C107.798 193.953 107.788 193.763 107.768 193.57C107.754 193.37 107.738 193.173 107.718 192.98H108.498L108.598 194.08H108.478C108.611 193.7 108.821 193.407 109.108 193.2C109.401 192.993 109.754 192.89 110.168 192.89C110.588 192.89 110.928 192.99 111.188 193.19C111.454 193.39 111.634 193.7 111.728 194.12H111.578C111.704 193.74 111.928 193.44 112.248 193.22C112.568 193 112.941 192.89 113.368 192.89C113.921 192.89 114.338 193.05 114.618 193.37C114.898 193.683 115.038 194.18 115.038 194.86V198H114.228V194.91C114.228 194.437 114.144 194.093 113.978 193.88C113.811 193.66 113.544 193.55 113.178 193.55C112.758 193.55 112.424 193.697 112.178 193.99C111.938 194.277 111.818 194.663 111.818 195.15V198H111.008V194.91C111.008 194.437 110.924 194.093 110.758 193.88C110.591 193.66 110.324 193.55 109.958 193.55C109.538 193.55 109.208 193.697 108.968 193.99C108.728 194.277 108.608 194.663 108.608 195.15V198H107.798ZM118.487 198.09C118.04 198.09 117.65 197.987 117.317 197.78C116.984 197.567 116.724 197.267 116.537 196.88C116.357 196.493 116.267 196.03 116.267 195.49C116.267 194.943 116.357 194.477 116.537 194.09C116.724 193.703 116.984 193.407 117.317 193.2C117.65 192.993 118.04 192.89 118.487 192.89C118.94 192.89 119.33 193.007 119.657 193.24C119.99 193.467 120.21 193.777 120.317 194.17H120.197L120.307 192.98H121.087C121.067 193.173 121.047 193.37 121.027 193.57C121.014 193.763 121.007 193.953 121.007 194.14V198H120.197V196.82H120.307C120.2 197.213 119.98 197.523 119.647 197.75C119.314 197.977 118.927 198.09 118.487 198.09ZM118.647 197.43C119.127 197.43 119.507 197.267 119.787 196.94C120.067 196.607 120.207 196.123 120.207 195.49C120.207 194.85 120.067 194.367 119.787 194.04C119.507 193.707 119.127 193.54 118.647 193.54C118.174 193.54 117.794 193.707 117.507 194.04C117.227 194.367 117.087 194.85 117.087 195.49C117.087 196.123 117.227 196.607 117.507 196.94C117.794 197.267 118.174 197.43 118.647 197.43ZM122.573 198V192.98H123.383V198H122.573ZM122.473 191.84V190.93H123.473V191.84H122.473ZM124.956 198V190.64H125.766V198H124.956ZM127.179 198V196.98H128.199V198H127.179ZM131.5 198.09C131.006 198.09 130.576 197.983 130.21 197.77C129.85 197.557 129.57 197.253 129.37 196.86C129.176 196.467 129.08 196 129.08 195.46C129.08 194.913 129.18 194.45 129.38 194.07C129.58 193.683 129.86 193.39 130.22 193.19C130.586 192.99 131.013 192.89 131.5 192.89C131.82 192.89 132.13 192.947 132.43 193.06C132.736 193.173 132.99 193.333 133.19 193.54L132.9 194.12C132.7 193.927 132.48 193.783 132.24 193.69C132.006 193.597 131.776 193.55 131.55 193.55C131.03 193.55 130.626 193.713 130.34 194.04C130.053 194.367 129.91 194.843 129.91 195.47C129.91 196.09 130.053 196.57 130.34 196.91C130.626 197.25 131.03 197.42 131.55 197.42C131.77 197.42 131.996 197.377 132.23 197.29C132.47 197.203 132.693 197.06 132.9 196.86L133.19 197.43C132.983 197.643 132.726 197.807 132.42 197.92C132.113 198.033 131.806 198.09 131.5 198.09ZM136.303 198.09C135.823 198.09 135.403 197.987 135.043 197.78C134.69 197.567 134.416 197.267 134.223 196.88C134.03 196.487 133.933 196.023 133.933 195.49C133.933 194.95 134.03 194.487 134.223 194.1C134.416 193.713 134.69 193.417 135.043 193.21C135.403 192.997 135.823 192.89 136.303 192.89C136.79 192.89 137.21 192.997 137.563 193.21C137.923 193.417 138.2 193.713 138.393 194.1C138.593 194.487 138.693 194.95 138.693 195.49C138.693 196.023 138.593 196.487 138.393 196.88C138.2 197.267 137.923 197.567 137.563 197.78C137.21 197.987 136.79 198.09 136.303 198.09ZM136.303 197.43C136.783 197.43 137.163 197.267 137.443 196.94C137.723 196.607 137.863 196.123 137.863 195.49C137.863 194.85 137.72 194.367 137.433 194.04C137.153 193.707 136.776 193.54 136.303 193.54C135.83 193.54 135.453 193.707 135.173 194.04C134.893 194.367 134.753 194.85 134.753 195.49C134.753 196.123 134.893 196.607 135.173 196.94C135.453 197.267 135.83 197.43 136.303 197.43ZM139.956 198V194.14C139.956 193.953 139.946 193.763 139.926 193.57C139.913 193.37 139.896 193.173 139.876 192.98H140.656L140.756 194.08H140.636C140.769 193.7 140.979 193.407 141.266 193.2C141.559 192.993 141.913 192.89 142.326 192.89C142.746 192.89 143.086 192.99 143.346 193.19C143.613 193.39 143.793 193.7 143.886 194.12H143.736C143.863 193.74 144.086 193.44 144.406 193.22C144.726 193 145.099 192.89 145.526 192.89C146.079 192.89 146.496 193.05 146.776 193.37C147.056 193.683 147.196 194.18 147.196 194.86V198H146.386V194.91C146.386 194.437 146.303 194.093 146.136 193.88C145.969 193.66 145.703 193.55 145.336 193.55C144.916 193.55 144.583 193.697 144.336 193.99C144.096 194.277 143.976 194.663 143.976 195.15V198H143.166V194.91C143.166 194.437 143.083 194.093 142.916 193.88C142.749 193.66 142.483 193.55 142.116 193.55C141.696 193.55 141.366 193.697 141.126 193.99C140.886 194.277 140.766 194.663 140.766 195.15V198H139.956Z" fill="#616161"/>
<path d="M330.026 188.261C330.43 187.857 330.972 187.622 331.543 187.603C332.114 187.584 332.671 187.784 333.101 188.16L333.208 188.261L333.739 188.792C334.142 189.195 334.378 189.738 334.396 190.308C334.415 190.879 334.216 191.435 333.84 191.865L333.739 191.973L325.33 200.383C325.211 200.502 325.067 200.592 324.908 200.648L324.787 200.684L321.446 201.455C321.329 201.482 321.207 201.48 321.091 201.451C320.974 201.421 320.867 201.364 320.777 201.284C320.687 201.204 320.618 201.103 320.576 200.991C320.533 200.879 320.518 200.758 320.531 200.639L320.546 200.554L321.316 197.213C321.355 197.049 321.429 196.895 321.534 196.764L321.617 196.67L330.026 188.261ZM329.496 190.913L322.753 197.655L322.276 199.724L324.345 199.246L331.087 192.503L329.496 190.913ZM332.148 189.322C332.019 189.193 331.847 189.115 331.665 189.104C331.482 189.092 331.302 189.148 331.158 189.26L331.087 189.322L330.556 189.852L332.148 191.443L332.678 190.913C332.807 190.783 332.885 190.612 332.896 190.429C332.908 190.247 332.852 190.067 332.74 189.923L332.678 189.852L332.148 189.322Z" fill="#757575"/>
<path d="M18.936 165V156.54H24.636V157.752H20.424V160.092H24.36V161.316H20.424V163.776H24.636V165H18.936ZM25.9527 165V160.452C25.9527 160.204 25.9447 159.952 25.9287 159.696C25.9127 159.44 25.8887 159.188 25.8567 158.94H27.3087L27.4287 160.14H27.2847C27.4527 159.724 27.7087 159.4 28.0527 159.168C28.4047 158.936 28.8207 158.82 29.3007 158.82C29.7807 158.82 30.1767 158.936 30.4887 159.168C30.8087 159.392 31.0327 159.744 31.1607 160.224H30.9687C31.1367 159.792 31.4127 159.452 31.7967 159.204C32.1807 158.948 32.6207 158.82 33.1167 158.82C33.7967 158.82 34.3047 159.02 34.6407 159.42C34.9767 159.82 35.1447 160.444 35.1447 161.292V165H33.6447V161.352C33.6447 160.872 33.5647 160.528 33.4047 160.32C33.2447 160.104 32.9887 159.996 32.6367 159.996C32.2207 159.996 31.8927 160.144 31.6527 160.44C31.4127 160.728 31.2927 161.12 31.2927 161.616V165H29.7927V161.352C29.7927 160.872 29.7127 160.528 29.5527 160.32C29.3927 160.104 29.1367 159.996 28.7847 159.996C28.3687 159.996 28.0407 160.144 27.8007 160.44C27.5687 160.728 27.4527 161.12 27.4527 161.616V165H25.9527ZM39.0857 165.12C38.5577 165.12 38.0937 164.996 37.6937 164.748C37.2937 164.492 36.9817 164.128 36.7577 163.656C36.5337 163.184 36.4217 162.62 36.4217 161.964C36.4217 161.308 36.5337 160.748 36.7577 160.284C36.9817 159.812 37.2937 159.452 37.6937 159.204C38.0937 158.948 38.5577 158.82 39.0857 158.82C39.5977 158.82 40.0457 158.948 40.4297 159.204C40.8217 159.452 41.0817 159.788 41.2097 160.212H41.0777L41.2097 158.94H42.6497C42.6257 159.188 42.6017 159.44 42.5777 159.696C42.5617 159.952 42.5537 160.204 42.5537 160.452V165H41.0657L41.0537 163.752H41.1977C41.0697 164.168 40.8097 164.5 40.4177 164.748C40.0257 164.996 39.5817 165.12 39.0857 165.12ZM39.5057 163.968C39.9777 163.968 40.3577 163.804 40.6457 163.476C40.9337 163.14 41.0777 162.636 41.0777 161.964C41.0777 161.292 40.9337 160.792 40.6457 160.464C40.3577 160.136 39.9777 159.972 39.5057 159.972C39.0337 159.972 38.6537 160.136 38.3657 160.464C38.0777 160.792 37.9337 161.292 37.9337 161.964C37.9337 162.636 38.0737 163.14 38.3537 163.476C38.6417 163.804 39.0257 163.968 39.5057 163.968ZM44.1871 165V158.94H45.6871V165H44.1871ZM44.1031 157.8V156.336H45.7711V157.8H44.1031ZM47.316 165V156.168H48.816V165H47.316Z" fill="black"/>
<path d="M54.6859 160.812L53.8339 160.188L54.9499 158.796L53.2219 158.316L53.5579 157.308L55.2139 157.944L55.1299 156.168H56.1979L56.1139 157.944L57.7819 157.308L58.1059 158.316L56.3899 158.784L57.5059 160.188L56.6419 160.812L55.6699 159.312L54.6859 160.812Z" fill="#FF0000"/>
<rect width="393" height="127" fill="#14D7D9" fill-opacity="0.7"/>
<path fill-rule="evenodd" clip-rule="evenodd" d="M28.1788 96L37.0175 104.839L35.25 106.606L25.5275 96.8838C25.2932 96.6494 25.1615 96.3315 25.1615 96C25.1615 95.6686 25.2932 95.3507 25.5275 95.1163L35.25 85.3938L37.0175 87.1613L28.1788 96Z" fill="white"/>
<mask id="path-15-outside-1_1_460" maskUnits="userSpaceOnUse" x="145" y="87" width="101" height="18" fill="black">
<rect fill="white" x="145" y="87" width="101" height="18"/>
<path d="M152.54 103.22C151.407 103.22 150.347 103.08 149.36 102.8C148.373 102.52 147.533 102.133 146.84 101.64L147.76 99.2C148.213 99.5067 148.693 99.7667 149.2 99.98C149.707 100.193 150.24 100.36 150.8 100.48C151.36 100.587 151.947 100.64 152.56 100.64C153.52 100.64 154.2 100.493 154.6 100.2C155.013 99.9067 155.22 99.5333 155.22 99.08C155.22 98.6667 155.08 98.3533 154.8 98.14C154.533 97.9133 154.04 97.72 153.32 97.56L150.96 97.08C149.667 96.8133 148.7 96.36 148.06 95.72C147.42 95.08 147.1 94.2267 147.1 93.16C147.1 92.2533 147.34 91.4667 147.82 90.8C148.3 90.1333 148.973 89.6133 149.84 89.24C150.72 88.8667 151.747 88.68 152.92 88.68C153.92 88.68 154.853 88.82 155.72 89.1C156.587 89.38 157.3 89.78 157.86 90.3L156.94 92.58C156.393 92.14 155.78 91.8133 155.1 91.6C154.433 91.3733 153.687 91.26 152.86 91.26C151.993 91.26 151.327 91.4133 150.86 91.72C150.407 92.0267 150.18 92.4467 150.18 92.98C150.18 93.38 150.32 93.7067 150.6 93.96C150.88 94.2 151.373 94.3933 152.08 94.54L154.4 95C155.72 95.2667 156.7 95.7133 157.34 96.34C157.98 96.9667 158.3 97.8 158.3 98.84C158.3 99.72 158.06 100.487 157.58 101.14C157.113 101.793 156.447 102.307 155.58 102.68C154.727 103.04 153.713 103.22 152.54 103.22ZM160.604 103V88.9H170.404V91.32H163.584V94.62H169.924V97.06H163.584V100.58H170.404V103H160.604ZM175.837 103V91.44H171.357V88.9H183.437V91.44H178.957V103H175.837ZM188.669 103V91.44H184.189V88.9H196.269V91.44H191.789V103H188.669ZM197.967 103V88.9H201.087V103H197.967ZM203.944 103V88.9H206.264L213.924 98.64H213.384V88.9H216.284V103H213.964L206.324 93.26H206.844V103H203.944ZM226.119 103.22C224.506 103.22 223.146 102.927 222.039 102.34C220.946 101.74 220.119 100.9 219.559 99.82C218.999 98.7267 218.719 97.4533 218.719 96C218.719 94.5067 219.019 93.2133 219.619 92.12C220.233 91.0267 221.113 90.18 222.259 89.58C223.406 88.98 224.779 88.68 226.379 88.68C227.406 88.68 228.306 88.8133 229.079 89.08C229.866 89.3333 230.553 89.7 231.139 90.18L230.139 92.6C229.713 92.2933 229.313 92.0533 228.939 91.88C228.566 91.6933 228.179 91.5667 227.779 91.5C227.379 91.42 226.919 91.38 226.399 91.38C224.933 91.38 223.826 91.78 223.079 92.58C222.346 93.3667 221.979 94.5133 221.979 96.02C221.979 97.5133 222.326 98.6467 223.019 99.42C223.713 100.193 224.799 100.58 226.279 100.58C226.773 100.58 227.279 100.533 227.799 100.44C228.319 100.347 228.833 100.207 229.339 100.02L228.779 101.22V97.42H225.679V95.2H231.359V102.12C230.653 102.467 229.833 102.74 228.899 102.94C227.979 103.127 227.053 103.22 226.119 103.22ZM239.142 103.22C238.008 103.22 236.948 103.08 235.962 102.8C234.975 102.52 234.135 102.133 233.442 101.64L234.362 99.2C234.815 99.5067 235.295 99.7667 235.802 99.98C236.308 100.193 236.842 100.36 237.402 100.48C237.962 100.587 238.548 100.64 239.162 100.64C240.122 100.64 240.802 100.493 241.202 100.2C241.615 99.9067 241.822 99.5333 241.822 99.08C241.822 98.6667 241.682 98.3533 241.402 98.14C241.135 97.9133 240.642 97.72 239.922 97.56L237.562 97.08C236.268 96.8133 235.302 96.36 234.662 95.72C234.022 95.08 233.702 94.2267 233.702 93.16C233.702 92.2533 233.942 91.4667 234.422 90.8C234.902 90.1333 235.575 89.6133 236.442 89.24C237.322 88.8667 238.348 88.68 239.522 88.68C240.522 88.68 241.455 88.82 242.322 89.1C243.188 89.38 243.902 89.78 244.462 90.3L243.542 92.58C242.995 92.14 242.382 91.8133 241.702 91.6C241.035 91.3733 240.288 91.26 239.462 91.26C238.595 91.26 237.928 91.4133 237.462 91.72C237.008 92.0267 236.782 92.4467 236.782 92.98C236.782 93.38 236.922 93.7067 237.202 93.96C237.482 94.2 237.975 94.3933 238.682 94.54L241.002 95C242.322 95.2667 243.302 95.7133 243.942 96.34C244.582 96.9667 244.902 97.8 244.902 98.84C244.902 99.72 244.662 100.487 244.182 101.14C243.715 101.793 243.048 102.307 242.182 102.68C241.328 103.04 240.315 103.22 239.142 103.22Z"/>
</mask>
<path d="M152.54 103.22C151.407 103.22 150.347 103.08 149.36 102.8C148.373 102.52 147.533 102.133 146.84 101.64L147.76 99.2C148.213 99.5067 148.693 99.7667 149.2 99.98C149.707 100.193 150.24 100.36 150.8 100.48C151.36 100.587 151.947 100.64 152.56 100.64C153.52 100.64 154.2 100.493 154.6 100.2C155.013 99.9067 155.22 99.5333 155.22 99.08C155.22 98.6667 155.08 98.3533 154.8 98.14C154.533 97.9133 154.04 97.72 153.32 97.56L150.96 97.08C149.667 96.8133 148.7 96.36 148.06 95.72C147.42 95.08 147.1 94.2267 147.1 93.16C147.1 92.2533 147.34 91.4667 147.82 90.8C148.3 90.1333 148.973 89.6133 149.84 89.24C150.72 88.8667 151.747 88.68 152.92 88.68C153.92 88.68 154.853 88.82 155.72 89.1C156.587 89.38 157.3 89.78 157.86 90.3L156.94 92.58C156.393 92.14 155.78 91.8133 155.1 91.6C154.433 91.3733 153.687 91.26 152.86 91.26C151.993 91.26 151.327 91.4133 150.86 91.72C150.407 92.0267 150.18 92.4467 150.18 92.98C150.18 93.38 150.32 93.7067 150.6 93.96C150.88 94.2 151.373 94.3933 152.08 94.54L154.4 95C155.72 95.2667 156.7 95.7133 157.34 96.34C157.98 96.9667 158.3 97.8 158.3 98.84C158.3 99.72 158.06 100.487 157.58 101.14C157.113 101.793 156.447 102.307 155.58 102.68C154.727 103.04 153.713 103.22 152.54 103.22ZM160.604 103V88.9H170.404V91.32H163.584V94.62H169.924V97.06H163.584V100.58H170.404V103H160.604ZM175.837 103V91.44H171.357V88.9H183.437V91.44H178.957V103H175.837ZM188.669 103V91.44H184.189V88.9H196.269V91.44H191.789V103H188.669ZM197.967 103V88.9H201.087V103H197.967ZM203.944 103V88.9H206.264L213.924 98.64H213.384V88.9H216.284V103H213.964L206.324 93.26H206.844V103H203.944ZM226.119 103.22C224.506 103.22 223.146 102.927 222.039 102.34C220.946 101.74 220.119 100.9 219.559 99.82C218.999 98.7267 218.719 97.4533 218.719 96C218.719 94.5067 219.019 93.2133 219.619 92.12C220.233 91.0267 221.113 90.18 222.259 89.58C223.406 88.98 224.779 88.68 226.379 88.68C227.406 88.68 228.306 88.8133 229.079 89.08C229.866 89.3333 230.553 89.7 231.139 90.18L230.139 92.6C229.713 92.2933 229.313 92.0533 228.939 91.88C228.566 91.6933 228.179 91.5667 227.779 91.5C227.379 91.42 226.919 91.38 226.399 91.38C224.933 91.38 223.826 91.78 223.079 92.58C222.346 93.3667 221.979 94.5133 221.979 96.02C221.979 97.5133 222.326 98.6467 223.019 99.42C223.713 100.193 224.799 100.58 226.279 100.58C226.773 100.58 227.279 100.533 227.799 100.44C228.319 100.347 228.833 100.207 229.339 100.02L228.779 101.22V97.42H225.679V95.2H231.359V102.12C230.653 102.467 229.833 102.74 228.899 102.94C227.979 103.127 227.053 103.22 226.119 103.22ZM239.142 103.22C238.008 103.22 236.948 103.08 235.962 102.8C234.975 102.52 234.135 102.133 233.442 101.64L234.362 99.2C234.815 99.5067 235.295 99.7667 235.802 99.98C236.308 100.193 236.842 100.36 237.402 100.48C237.962 100.587 238.548 100.64 239.162 100.64C240.122 100.64 240.802 100.493 241.202 100.2C241.615 99.9067 241.822 99.5333 241.822 99.08C241.822 98.6667 241.682 98.3533 241.402 98.14C241.135 97.9133 240.642 97.72 239.922 97.56L237.562 97.08C236.268 96.8133 235.302 96.36 234.662 95.72C234.022 95.08 233.702 94.2267 233.702 93.16C233.702 92.2533 233.942 91.4667 234.422 90.8C234.902 90.1333 235.575 89.6133 236.442 89.24C237.322 88.8667 238.348 88.68 239.522 88.68C240.522 88.68 241.455 88.82 242.322 89.1C243.188 89.38 243.902 89.78 244.462 90.3L243.542 92.58C242.995 92.14 242.382 91.8133 241.702 91.6C241.035 91.3733 240.288 91.26 239.462 91.26C238.595 91.26 237.928 91.4133 237.462 91.72C237.008 92.0267 236.782 92.4467 236.782 92.98C236.782 93.38 236.922 93.7067 237.202 93.96C237.482 94.2 237.975 94.3933 238.682 94.54L241.002 95C242.322 95.2667 243.302 95.7133 243.942 96.34C244.582 96.9667 244.902 97.8 244.902 98.84C244.902 99.72 244.662 100.487 244.182 101.14C243.715 101.793 243.048 102.307 242.182 102.68C241.328 103.04 240.315 103.22 239.142 103.22Z" fill="#0E8F90"/>
<path d="M149.36 102.8L149.633 101.838L149.36 102.8ZM146.84 101.64L145.904 101.287L145.632 102.008L146.26 102.455L146.84 101.64ZM147.76 99.2L148.32 98.3717L147.271 97.662L146.824 98.8472L147.76 99.2ZM150.8 100.48L150.59 101.458L150.602 101.46L150.613 101.462L150.8 100.48ZM154.6 100.2L154.021 99.3845L154.015 99.389L154.009 99.3936L154.6 100.2ZM154.8 98.14L154.152 98.9019L154.173 98.9192L154.194 98.9354L154.8 98.14ZM153.32 97.56L153.537 96.5838L153.528 96.5819L153.519 96.5801L153.32 97.56ZM150.96 97.08L150.758 98.0594L150.761 98.0599L150.96 97.08ZM148.06 95.72L148.767 95.0129L148.06 95.72ZM147.82 90.8L148.632 91.3843L147.82 90.8ZM149.84 89.24L149.449 88.3194L149.444 88.3216L149.84 89.24ZM155.72 89.1L156.027 88.1484H156.027L155.72 89.1ZM157.86 90.3L158.787 90.6742L159.045 90.0357L158.54 89.5672L157.86 90.3ZM156.94 92.58L156.313 93.359L157.363 94.2041L157.867 92.9542L156.94 92.58ZM155.1 91.6L154.778 92.5468L154.789 92.5506L154.801 92.5541L155.1 91.6ZM150.86 91.72L150.311 90.8842L150.3 90.8917L150.86 91.72ZM150.6 93.96L149.929 94.7015L149.939 94.7105L149.949 94.7193L150.6 93.96ZM152.08 94.54L151.877 95.5192L151.886 95.5209L152.08 94.54ZM154.4 95L154.598 94.0198L154.594 94.0191L154.4 95ZM157.34 96.34L156.64 97.0545H156.64L157.34 96.34ZM157.58 101.14L156.774 100.548L156.766 100.559L157.58 101.14ZM155.58 102.68L155.969 103.601L155.976 103.598L155.58 102.68ZM152.54 103.22V102.22C151.489 102.22 150.522 102.09 149.633 101.838L149.36 102.8L149.087 103.762C150.171 104.07 151.324 104.22 152.54 104.22V103.22ZM149.36 102.8L149.633 101.838C148.734 101.583 148.003 101.24 147.42 100.825L146.84 101.64L146.26 102.455C147.064 103.026 148.012 103.457 149.087 103.762L149.36 102.8ZM146.84 101.64L147.776 101.993L148.696 99.5528L147.76 99.2L146.824 98.8472L145.904 101.287L146.84 101.64ZM147.76 99.2L147.2 100.028C147.707 100.372 148.245 100.663 148.812 100.902L149.2 99.98L149.588 99.0584C149.141 98.8703 148.719 98.6415 148.32 98.3717L147.76 99.2ZM149.2 99.98L148.812 100.902C149.379 101.14 149.972 101.325 150.59 101.458L150.8 100.48L151.01 99.5022C150.508 99.3948 150.035 99.2464 149.588 99.0584L149.2 99.98ZM150.8 100.48L150.613 101.462C151.239 101.582 151.889 101.64 152.56 101.64V100.64V99.64C152.005 99.64 151.481 99.5917 150.987 99.4977L150.8 100.48ZM152.56 100.64V101.64C153.564 101.64 154.521 101.498 155.191 101.006L154.6 100.2L154.009 99.3936C153.879 99.4887 153.476 99.64 152.56 99.64V100.64ZM154.6 100.2L155.179 101.016C155.82 100.56 156.22 99.8993 156.22 99.08H155.22H154.22C154.22 99.1673 154.207 99.253 154.021 99.3845L154.6 100.2ZM155.22 99.08H156.22C156.22 98.4159 155.979 97.7814 155.406 97.3446L154.8 98.14L154.194 98.9354C154.201 98.9411 154.203 98.9436 154.202 98.9422C154.201 98.9408 154.201 98.9402 154.202 98.9429C154.204 98.9478 154.22 98.9857 154.22 99.08H155.22ZM154.8 98.14L155.448 97.3781C154.981 96.9816 154.277 96.7482 153.537 96.5838L153.32 97.56L153.103 98.5362C153.803 98.6918 154.085 98.845 154.152 98.9019L154.8 98.14ZM153.32 97.56L153.519 96.5801L151.159 96.1001L150.96 97.08L150.761 98.0599L153.121 98.5399L153.32 97.56ZM150.96 97.08L151.162 96.1006C149.977 95.8562 149.219 95.4649 148.767 95.0129L148.06 95.72L147.353 96.4271C148.181 97.2551 149.357 97.7704 150.758 98.0594L150.96 97.08ZM148.06 95.72L148.767 95.0129C148.348 94.5936 148.1 94.0124 148.1 93.16H147.1H146.1C146.1 94.4409 146.492 95.5664 147.353 96.4271L148.06 95.72ZM147.1 93.16H148.1C148.1 92.4402 148.287 91.8632 148.632 91.3843L147.82 90.8L147.008 90.2157C146.393 91.0702 146.1 92.0664 146.1 93.16H147.1ZM147.82 90.8L148.632 91.3843C148.991 90.8854 149.51 90.4709 150.236 90.1584L149.84 89.24L149.444 88.3216C148.437 88.7557 147.609 89.3813 147.008 90.2157L147.82 90.8ZM149.84 89.24L150.231 90.1606C150.962 89.8501 151.851 89.68 152.92 89.68V88.68V87.68C151.642 87.68 150.478 87.8832 149.449 88.3194L149.84 89.24ZM152.92 88.68V89.68C153.826 89.68 154.654 89.8066 155.413 90.0516L155.72 89.1L156.027 88.1484C155.052 87.8334 154.014 87.68 152.92 87.68V88.68ZM155.72 89.1L155.413 90.0516C156.167 90.2952 156.745 90.6293 157.18 91.0328L157.86 90.3L158.54 89.5672C157.855 88.9307 157.007 88.4648 156.027 88.1484L155.72 89.1ZM157.86 90.3L156.933 89.9258L156.013 92.2058L156.94 92.58L157.867 92.9542L158.787 90.6742L157.86 90.3ZM156.94 92.58L157.567 91.801C156.921 91.2814 156.197 90.896 155.399 90.6459L155.1 91.6L154.801 92.5541C155.363 92.7307 155.865 92.9986 156.313 93.359L156.94 92.58ZM155.1 91.6L155.422 90.6532C154.635 90.3858 153.778 90.26 152.86 90.26V91.26V92.26C153.596 92.26 154.231 92.3609 154.778 92.5468L155.1 91.6ZM152.86 91.26V90.26C151.898 90.26 151.008 90.4264 150.311 90.8843L150.86 91.72L151.409 92.5557C151.646 92.4002 152.089 92.26 152.86 92.26V91.26ZM150.86 91.72L150.3 90.8917C149.58 91.3785 149.18 92.1044 149.18 92.98H150.18H151.18C151.18 92.7889 151.233 92.6748 151.42 92.5483L150.86 91.72ZM150.18 92.98H149.18C149.18 93.6437 149.426 94.2463 149.929 94.7015L150.6 93.96L151.271 93.2185C151.214 93.167 151.18 93.1163 151.18 92.98H150.18ZM150.6 93.96L149.949 94.7193C150.43 95.1316 151.135 95.3651 151.877 95.5191L152.08 94.54L152.283 93.5609C151.612 93.4215 151.33 93.2684 151.251 93.2007L150.6 93.96ZM152.08 94.54L151.886 95.5209L154.206 95.9809L154.4 95L154.594 94.0191L152.274 93.5591L152.08 94.54ZM154.4 95L154.202 95.9802C155.422 96.2266 156.192 96.615 156.64 97.0545L157.34 96.34L158.04 95.6255C157.208 94.8117 156.018 94.3067 154.598 94.0198L154.4 95ZM157.34 96.34L156.64 97.0545C157.057 97.4626 157.3 98.0219 157.3 98.84H158.3H159.3C159.3 97.5781 158.903 96.4708 158.04 95.6255L157.34 96.34ZM158.3 98.84H157.3C157.3 99.5262 157.117 100.081 156.774 100.548L157.58 101.14L158.386 101.732C159.003 100.892 159.3 99.9138 159.3 98.84H158.3ZM157.58 101.14L156.766 100.559C156.423 101.039 155.913 101.448 155.184 101.762L155.58 102.68L155.976 103.598C156.98 103.166 157.804 102.547 158.394 101.721L157.58 101.14ZM155.58 102.68L155.191 101.759C154.489 102.055 153.614 102.22 152.54 102.22V103.22V104.22C153.813 104.22 154.964 104.025 155.969 103.601L155.58 102.68ZM160.604 103H159.604V104H160.604V103ZM160.604 88.9V87.9H159.604V88.9H160.604ZM170.404 88.9H171.404V87.9H170.404V88.9ZM170.404 91.32V92.32H171.404V91.32H170.404ZM163.584 91.32V90.32H162.584V91.32H163.584ZM163.584 94.62H162.584V95.62H163.584V94.62ZM169.924 94.62H170.924V93.62H169.924V94.62ZM169.924 97.06V98.06H170.924V97.06H169.924ZM163.584 97.06V96.06H162.584V97.06H163.584ZM163.584 100.58H162.584V101.58H163.584V100.58ZM170.404 100.58H171.404V99.58H170.404V100.58ZM170.404 103V104H171.404V103H170.404ZM160.604 103H161.604V88.9H160.604H159.604V103H160.604ZM160.604 88.9V89.9H170.404V88.9V87.9H160.604V88.9ZM170.404 88.9H169.404V91.32H170.404H171.404V88.9H170.404ZM170.404 91.32V90.32H163.584V91.32V92.32H170.404V91.32ZM163.584 91.32H162.584V94.62H163.584H164.584V91.32H163.584ZM163.584 94.62V95.62H169.924V94.62V93.62H163.584V94.62ZM169.924 94.62H168.924V97.06H169.924H170.924V94.62H169.924ZM169.924 97.06V96.06H163.584V97.06V98.06H169.924V97.06ZM163.584 97.06H162.584V100.58H163.584H164.584V97.06H163.584ZM163.584 100.58V101.58H170.404V100.58V99.58H163.584V100.58ZM170.404 100.58H169.404V103H170.404H171.404V100.58H170.404ZM170.404 103V102H160.604V103V104H170.404V103ZM175.837 103H174.837V104H175.837V103ZM175.837 91.44H176.837V90.44H175.837V91.44ZM171.357 91.44H170.357V92.44H171.357V91.44ZM171.357 88.9V87.9H170.357V88.9H171.357ZM183.437 88.9H184.437V87.9H183.437V88.9ZM183.437 91.44V92.44H184.437V91.44H183.437ZM178.957 91.44V90.44H177.957V91.44H178.957ZM178.957 103V104H179.957V103H178.957ZM175.837 103H176.837V91.44H175.837H174.837V103H175.837ZM175.837 91.44V90.44H171.357V91.44V92.44H175.837V91.44ZM171.357 91.44H172.357V88.9H171.357H170.357V91.44H171.357ZM171.357 88.9V89.9H183.437V88.9V87.9H171.357V88.9ZM183.437 88.9H182.437V91.44H183.437H184.437V88.9H183.437ZM183.437 91.44V90.44H178.957V91.44V92.44H183.437V91.44ZM178.957 91.44H177.957V103H178.957H179.957V91.44H178.957ZM178.957 103V102H175.837V103V104H178.957V103ZM188.669 103H187.669V104H188.669V103ZM188.669 91.44H189.669V90.44H188.669V91.44ZM184.189 91.44H183.189V92.44H184.189V91.44ZM184.189 88.9V87.9H183.189V88.9H184.189ZM196.269 88.9H197.269V87.9H196.269V88.9ZM196.269 91.44V92.44H197.269V91.44H196.269ZM191.789 91.44V90.44H190.789V91.44H191.789ZM191.789 103V104H192.789V103H191.789ZM188.669 103H189.669V91.44H188.669H187.669V103H188.669ZM188.669 91.44V90.44H184.189V91.44V92.44H188.669V91.44ZM184.189 91.44H185.189V88.9H184.189H183.189V91.44H184.189ZM184.189 88.9V89.9H196.269V88.9V87.9H184.189V88.9ZM196.269 88.9H195.269V91.44H196.269H197.269V88.9H196.269ZM196.269 91.44V90.44H191.789V91.44V92.44H196.269V91.44ZM191.789 91.44H190.789V103H191.789H192.789V91.44H191.789ZM191.789 103V102H188.669V103V104H191.789V103ZM197.967 103H196.967V104H197.967V103ZM197.967 88.9V87.9H196.967V88.9H197.967ZM201.087 88.9H202.087V87.9H201.087V88.9ZM201.087 103V104H202.087V103H201.087ZM197.967 103H198.967V88.9H197.967H196.967V103H197.967ZM197.967 88.9V89.9H201.087V88.9V87.9H197.967V88.9ZM201.087 88.9H200.087V103H201.087H202.087V88.9H201.087ZM201.087 103V102H197.967V103V104H201.087V103ZM203.944 103H202.944V104H203.944V103ZM203.944 88.9V87.9H202.944V88.9H203.944ZM206.264 88.9L207.05 88.2818L206.75 87.9H206.264V88.9ZM213.924 98.64V99.64H215.983L214.71 98.0218L213.924 98.64ZM213.384 98.64H212.384V99.64H213.384V98.64ZM213.384 88.9V87.9H212.384V88.9H213.384ZM216.284 88.9H217.284V87.9H216.284V88.9ZM216.284 103V104H217.284V103H216.284ZM213.964 103L213.177 103.617L213.477 104H213.964V103ZM206.324 93.26V92.26H204.269L205.537 93.8772L206.324 93.26ZM206.844 93.26H207.844V92.26H206.844V93.26ZM206.844 103V104H207.844V103H206.844ZM203.944 103H204.944V88.9H203.944H202.944V103H203.944ZM203.944 88.9V89.9H206.264V88.9V87.9H203.944V88.9ZM206.264 88.9L205.478 89.5182L213.138 99.2582L213.924 98.64L214.71 98.0218L207.05 88.2818L206.264 88.9ZM213.924 98.64V97.64H213.384V98.64V99.64H213.924V98.64ZM213.384 98.64H214.384V88.9H213.384H212.384V98.64H213.384ZM213.384 88.9V89.9H216.284V88.9V87.9H213.384V88.9ZM216.284 88.9H215.284V103H216.284H217.284V88.9H216.284ZM216.284 103V102H213.964V103V104H216.284V103ZM213.964 103L214.751 102.383L207.111 92.6428L206.324 93.26L205.537 93.8772L213.177 103.617L213.964 103ZM206.324 93.26V94.26H206.844V93.26V92.26H206.324V93.26ZM206.844 93.26H205.844V103H206.844H207.844V93.26H206.844ZM206.844 103V102H203.944V103V104H206.844V103ZM222.039 102.34L221.558 103.217L221.564 103.22L221.571 103.224L222.039 102.34ZM219.559 99.82L218.669 100.276L218.671 100.28L219.559 99.82ZM219.619 92.12L218.747 91.6307L218.743 91.6389L219.619 92.12ZM222.259 89.58L222.723 90.466V90.466L222.259 89.58ZM229.079 89.08L228.753 90.0254L228.763 90.0287L228.773 90.0319L229.079 89.08ZM231.139 90.18L232.063 90.5619L232.347 89.876L231.772 89.406L231.139 90.18ZM230.139 92.6L229.556 93.412L230.581 94.1491L231.063 92.9819L230.139 92.6ZM228.939 91.88L228.492 92.7744L228.505 92.7809L228.518 92.787L228.939 91.88ZM227.779 91.5L227.583 92.4806L227.599 92.4837L227.615 92.4864L227.779 91.5ZM223.079 92.58L222.348 91.8977L222.348 91.8981L223.079 92.58ZM223.019 99.42L222.275 100.088L223.019 99.42ZM227.799 100.44L227.623 99.4557L227.799 100.44ZM229.339 100.02L230.245 100.443L231.272 98.242L228.994 99.0817L229.339 100.02ZM228.779 101.22H227.779L229.685 101.643L228.779 101.22ZM228.779 97.42H229.779V96.42H228.779V97.42ZM225.679 97.42H224.679V98.42H225.679V97.42ZM225.679 95.2V94.2H224.679V95.2H225.679ZM231.359 95.2H232.359V94.2H231.359V95.2ZM231.359 102.12L231.8 103.018L232.359 102.743V102.12H231.359ZM228.899 102.94L229.098 103.92L229.109 103.918L228.899 102.94ZM226.119 103.22V102.22C224.623 102.22 223.434 101.948 222.508 101.456L222.039 102.34L221.571 103.224C222.857 103.906 224.388 104.22 226.119 104.22V103.22ZM222.039 102.34L222.52 101.463C221.596 100.956 220.913 100.259 220.447 99.3597L219.559 99.82L218.671 100.28C219.325 101.541 220.296 102.524 221.558 103.217L222.039 102.34ZM219.559 99.82L220.449 99.3641C219.974 98.4355 219.719 97.3237 219.719 96H218.719H217.719C217.719 97.583 218.025 99.0178 218.669 100.276L219.559 99.82ZM218.719 96H219.719C219.719 94.6417 219.991 93.5205 220.496 92.6011L219.619 92.12L218.743 91.6389C218.047 92.9062 217.719 94.3716 217.719 96H218.719ZM219.619 92.12L220.491 92.6093C221.007 91.6907 221.742 90.9792 222.723 90.466L222.259 89.58L221.796 88.694C220.483 89.3808 219.458 90.3627 218.747 91.6307L219.619 92.12ZM222.259 89.58L222.723 90.466C223.697 89.9566 224.903 89.68 226.379 89.68V88.68V87.68C224.655 87.68 223.115 88.0034 221.796 88.694L222.259 89.58ZM226.379 88.68V89.68C227.322 89.68 228.108 89.8028 228.753 90.0254L229.079 89.08L229.405 88.1346C228.504 87.8239 227.49 87.68 226.379 87.68V88.68ZM229.079 89.08L228.773 90.0319C229.451 90.2503 230.025 90.56 230.506 90.954L231.139 90.18L231.772 89.406C231.081 88.84 230.281 88.4163 229.386 88.1281L229.079 89.08ZM231.139 90.18L230.215 89.7981L229.215 92.2181L230.139 92.6L231.063 92.9819L232.063 90.5619L231.139 90.18ZM230.139 92.6L230.723 91.788C230.258 91.4541 229.804 91.1789 229.36 90.973L228.939 91.88L228.518 92.787C228.821 92.9278 229.167 93.1325 229.556 93.412L230.139 92.6ZM228.939 91.88L229.386 90.9856C228.927 90.7556 228.445 90.5971 227.944 90.5136L227.779 91.5L227.615 92.4864C227.914 92.5362 228.205 92.631 228.492 92.7744L228.939 91.88ZM227.779 91.5L227.975 90.5194C227.496 90.4236 226.968 90.38 226.399 90.38V91.38V92.38C226.87 92.38 227.262 92.4164 227.583 92.4806L227.779 91.5ZM226.399 91.38V90.38C224.754 90.38 223.342 90.8329 222.348 91.8977L223.079 92.58L223.81 93.2623C224.31 92.7271 225.111 92.38 226.399 92.38V91.38ZM223.079 92.58L222.348 91.8981C221.383 92.933 220.979 94.3621 220.979 96.02H221.979H222.979C222.979 94.6645 223.309 93.8004 223.811 93.2619L223.079 92.58ZM221.979 96.02H220.979C220.979 97.6531 221.357 99.0644 222.275 100.088L223.019 99.42L223.764 98.7525C223.294 98.2289 222.979 97.3736 222.979 96.02H221.979ZM223.019 99.42L222.275 100.088C223.227 101.15 224.639 101.58 226.279 101.58V100.58V99.58C224.959 99.58 224.198 99.2368 223.764 98.7525L223.019 99.42ZM226.279 100.58V101.58C226.836 101.58 227.402 101.527 227.976 101.424L227.799 100.44L227.623 99.4557C227.157 99.5393 226.709 99.58 226.279 99.58V100.58ZM227.799 100.44L227.976 101.424C228.555 101.32 229.125 101.165 229.685 100.958L229.339 100.02L228.994 99.0817C228.541 99.2485 228.084 99.373 227.623 99.4557L227.799 100.44ZM229.339 100.02L228.433 99.5971L227.873 100.797L228.779 101.22L229.685 101.643L230.245 100.443L229.339 100.02ZM228.779 101.22H229.779V97.42H228.779H227.779V101.22H228.779ZM228.779 97.42V96.42H225.679V97.42V98.42H228.779V97.42ZM225.679 97.42H226.679V95.2H225.679H224.679V97.42H225.679ZM225.679 95.2V96.2H231.359V95.2V94.2H225.679V95.2ZM231.359 95.2H230.359V102.12H231.359H232.359V95.2H231.359ZM231.359 102.12L230.919 101.222C230.299 101.526 229.559 101.776 228.69 101.962L228.899 102.94L229.109 103.918C230.106 103.704 231.006 103.407 231.8 103.018L231.359 102.12ZM228.899 102.94L228.7 101.96C227.845 102.133 226.985 102.22 226.119 102.22V103.22V104.22C227.12 104.22 228.113 104.12 229.098 103.92L228.899 102.94ZM235.962 102.8L236.235 101.838L235.962 102.8ZM233.442 101.64L232.506 101.287L232.234 102.008L232.862 102.455L233.442 101.64ZM234.362 99.2L234.922 98.3717L233.873 97.662L233.426 98.8472L234.362 99.2ZM237.402 100.48L237.192 101.458L237.203 101.46L237.214 101.462L237.402 100.48ZM241.202 100.2L240.623 99.3845L240.616 99.389L240.61 99.3936L241.202 100.2ZM241.402 98.14L240.754 98.9019L240.774 98.9192L240.796 98.9354L241.402 98.14ZM239.922 97.56L240.138 96.5838L240.13 96.5819L240.121 96.5801L239.922 97.56ZM237.562 97.08L237.36 98.0594L237.362 98.0599L237.562 97.08ZM234.662 95.72L235.369 95.0129L234.662 95.72ZM234.422 90.8L235.233 91.3843L234.422 90.8ZM236.442 89.24L236.051 88.3194L236.046 88.3216L236.442 89.24ZM242.322 89.1L242.629 88.1484H242.629L242.322 89.1ZM244.462 90.3L245.389 90.6742L245.647 90.0357L245.142 89.5672L244.462 90.3ZM243.542 92.58L242.915 93.359L243.965 94.2041L244.469 92.9542L243.542 92.58ZM241.702 91.6L241.38 92.5468L241.391 92.5506L241.402 92.5541L241.702 91.6ZM237.462 91.72L236.912 90.8842L236.901 90.8917L237.462 91.72ZM237.202 93.96L236.531 94.7015L236.541 94.7105L236.551 94.7193L237.202 93.96ZM238.682 94.54L238.478 95.5192L238.487 95.5209L238.682 94.54ZM241.002 95L241.2 94.0198L241.196 94.0191L241.002 95ZM243.942 96.34L243.242 97.0545L243.942 96.34ZM244.182 101.14L243.376 100.548L243.368 100.559L244.182 101.14ZM242.182 102.68L242.57 103.601L242.577 103.598L242.182 102.68ZM239.142 103.22V102.22C238.091 102.22 237.124 102.09 236.235 101.838L235.962 102.8L235.689 103.762C236.773 104.07 237.925 104.22 239.142 104.22V103.22ZM235.962 102.8L236.235 101.838C235.336 101.583 234.605 101.24 234.021 100.825L233.442 101.64L232.862 102.455C233.665 103.026 234.614 103.457 235.689 103.762L235.962 102.8ZM233.442 101.64L234.377 101.993L235.297 99.5528L234.362 99.2L233.426 98.8472L232.506 101.287L233.442 101.64ZM234.362 99.2L233.801 100.028C234.309 100.372 234.847 100.663 235.414 100.902L235.802 99.98L236.19 99.0584C235.743 98.8703 235.321 98.6415 234.922 98.3717L234.362 99.2ZM235.802 99.98L235.414 100.902C235.98 101.14 236.573 101.325 237.192 101.458L237.402 100.48L237.611 99.5022C237.11 99.3948 236.636 99.2464 236.19 99.0584L235.802 99.98ZM237.402 100.48L237.214 101.462C237.841 101.582 238.49 101.64 239.162 101.64V100.64V99.64C238.606 99.64 238.083 99.5917 237.589 99.4977L237.402 100.48ZM239.162 100.64V101.64C240.166 101.64 241.123 101.498 241.793 101.006L241.202 100.2L240.61 99.3936C240.48 99.4887 240.078 99.64 239.162 99.64V100.64ZM241.202 100.2L241.78 101.016C242.422 100.56 242.822 99.8993 242.822 99.08H241.822H240.822C240.822 99.1673 240.808 99.253 240.623 99.3845L241.202 100.2ZM241.822 99.08H242.822C242.822 98.4159 242.581 97.7814 242.008 97.3446L241.402 98.14L240.796 98.9354C240.803 98.9411 240.805 98.9436 240.803 98.9422C240.802 98.9408 240.802 98.9402 240.804 98.9429C240.806 98.9478 240.822 98.9857 240.822 99.08H241.822ZM241.402 98.14L242.049 97.3781C241.583 96.9816 240.878 96.7482 240.138 96.5838L239.922 97.56L239.705 98.5362C240.405 98.6918 240.687 98.845 240.754 98.9019L241.402 98.14ZM239.922 97.56L240.121 96.5801L237.761 96.1001L237.562 97.08L237.362 98.0599L239.722 98.5399L239.922 97.56ZM237.562 97.08L237.764 96.1006C236.578 95.8562 235.821 95.4649 235.369 95.0129L234.662 95.72L233.954 96.4271C234.782 97.2551 235.958 97.7704 237.36 98.0594L237.562 97.08ZM234.662 95.72L235.369 95.0129C234.949 94.5936 234.702 94.0124 234.702 93.16H233.702H232.702C232.702 94.4409 233.094 95.5664 233.954 96.4271L234.662 95.72ZM233.702 93.16H234.702C234.702 92.4402 234.888 91.8632 235.233 91.3843L234.422 90.8L233.61 90.2157C232.995 91.0702 232.702 92.0664 232.702 93.16H233.702ZM234.422 90.8L235.233 91.3843C235.592 90.8854 236.112 90.4709 236.837 90.1584L236.442 89.24L236.046 88.3216C235.038 88.7557 234.211 89.3813 233.61 90.2157L234.422 90.8ZM236.442 89.24L236.832 90.1606C237.564 89.8501 238.453 89.68 239.522 89.68V88.68V87.68C238.244 87.68 237.079 87.8832 236.051 88.3194L236.442 89.24ZM239.522 88.68V89.68C240.427 89.68 241.256 89.8066 242.014 90.0516L242.322 89.1L242.629 88.1484C241.654 87.8334 240.616 87.68 239.522 87.68V88.68ZM242.322 89.1L242.014 90.0516C242.768 90.2952 243.347 90.6293 243.781 91.0328L244.462 90.3L245.142 89.5672C244.457 88.9307 243.608 88.4648 242.629 88.1484L242.322 89.1ZM244.462 90.3L243.534 89.9258L242.614 92.2058L243.542 92.58L244.469 92.9542L245.389 90.6742L244.462 90.3ZM243.542 92.58L244.169 91.801C243.523 91.2814 242.798 90.896 242.001 90.6459L241.702 91.6L241.402 92.5541C241.965 92.7307 242.467 92.9986 242.915 93.359L243.542 92.58ZM241.702 91.6L242.023 90.6532C241.237 90.3858 240.379 90.26 239.462 90.26V91.26V92.26C240.197 92.26 240.833 92.3609 241.38 92.5468L241.702 91.6ZM239.462 91.26V90.26C238.499 90.26 237.609 90.4264 236.912 90.8843L237.462 91.72L238.011 92.5557C238.247 92.4002 238.69 92.26 239.462 92.26V91.26ZM237.462 91.72L236.901 90.8917C236.182 91.3785 235.782 92.1044 235.782 92.98H236.782H237.782C237.782 92.7889 237.835 92.6748 238.022 92.5483L237.462 91.72ZM236.782 92.98H235.782C235.782 93.6437 236.027 94.2463 236.531 94.7015L237.202 93.96L237.872 93.2185C237.816 93.167 237.782 93.1163 237.782 92.98H236.782ZM237.202 93.96L236.551 94.7193C237.032 95.1316 237.736 95.3651 238.478 95.5191L238.682 94.54L238.885 93.5609C238.213 93.4215 237.931 93.2684 237.852 93.2007L237.202 93.96ZM238.682 94.54L238.487 95.5209L240.807 95.9809L241.002 95L241.196 94.0191L238.876 93.5591L238.682 94.54ZM241.002 95L240.804 95.9802C242.023 96.2266 242.793 96.615 243.242 97.0545L243.942 96.34L244.641 95.6255C243.81 94.8117 242.62 94.3067 241.2 94.0198L241.002 95ZM243.942 96.34L243.242 97.0545C243.659 97.4626 243.902 98.0219 243.902 98.84H244.902H245.902C245.902 97.5781 245.504 96.4708 244.641 95.6255L243.942 96.34ZM244.902 98.84H243.902C243.902 99.5262 243.719 100.081 243.376 100.548L244.182 101.14L244.987 101.732C245.604 100.892 245.902 99.9138 245.902 98.84H244.902ZM244.182 101.14L243.368 100.559C243.025 101.039 242.515 101.448 241.786 101.762L242.182 102.68L242.577 103.598C243.582 103.166 244.405 102.547 244.995 101.721L244.182 101.14ZM242.182 102.68L241.793 101.759C241.091 102.055 240.216 102.22 239.142 102.22V103.22V104.22C240.414 104.22 241.566 104.025 242.57 103.601L242.182 102.68Z" fill="white" mask="url(#path-15-outside-1_1_460)"/>
<path d="M296.673 34.5088H298.849C299.356 34.5088 299.737 34.3867 299.991 34.1426C300.25 33.9033 300.379 33.5444 300.379 33.0659V26.5327C300.379 26.0542 300.25 25.6929 299.991 25.4487C299.737 25.2046 299.356 25.0825 298.849 25.0825H296.673C296.17 25.0825 295.79 25.2046 295.531 25.4487C295.277 25.6929 295.15 26.0542 295.15 26.5327V33.0659C295.15 33.5444 295.277 33.9033 295.531 34.1426C295.79 34.3867 296.17 34.5088 296.673 34.5088ZM303.258 34.5088H305.44C305.943 34.5088 306.322 34.3867 306.576 34.1426C306.834 33.9033 306.964 33.5444 306.964 33.0659V24.4014C306.964 23.9229 306.834 23.5615 306.576 23.3174C306.322 23.0732 305.943 22.9512 305.44 22.9512H303.258C302.755 22.9512 302.374 23.0732 302.115 23.3174C301.861 23.5615 301.734 23.9229 301.734 24.4014V33.0659C301.734 33.5444 301.861 33.9033 302.115 34.1426C302.374 34.3867 302.755 34.5088 303.258 34.5088ZM309.842 34.5088H312.025C312.533 34.5088 312.914 34.3867 313.167 34.1426C313.426 33.9033 313.556 33.5444 313.556 33.0659V22.2627C313.556 21.7842 313.426 21.4229 313.167 21.1787C312.914 20.9346 312.533 20.8125 312.025 20.8125H309.842C309.344 20.8125 308.966 20.9346 308.707 21.1787C308.453 21.4229 308.326 21.7842 308.326 22.2627V33.0659C308.326 33.5444 308.453 33.9033 308.707 34.1426C308.966 34.3867 309.344 34.5088 309.842 34.5088ZM329.508 33.8057C329.591 33.8057 329.674 33.7812 329.757 33.7324C329.84 33.6885 329.952 33.5957 330.094 33.4541L331.881 31.7402C331.935 31.6865 331.966 31.623 331.976 31.5498C331.991 31.4717 331.971 31.4009 331.917 31.3374C331.678 31.0298 331.344 30.7612 330.914 30.5317C330.489 30.3022 330.021 30.1875 329.508 30.1875C328.98 30.1875 328.502 30.3071 328.072 30.5464C327.643 30.7856 327.308 31.064 327.069 31.3813C327.035 31.4399 327.022 31.501 327.032 31.5645C327.047 31.6279 327.083 31.6865 327.142 31.7402L328.922 33.4541C329.063 33.5908 329.176 33.6836 329.259 33.7324C329.342 33.7812 329.425 33.8057 329.508 33.8057ZM325.223 29.8213C325.301 29.8945 325.387 29.9287 325.479 29.9238C325.572 29.9141 325.655 29.8701 325.729 29.792C326.168 29.3037 326.725 28.9009 327.398 28.5835C328.072 28.2661 328.775 28.1099 329.508 28.1147C330.25 28.1099 330.958 28.271 331.632 28.5981C332.306 28.9204 332.867 29.3257 333.316 29.814C333.385 29.8872 333.46 29.9238 333.543 29.9238C333.631 29.9238 333.714 29.8872 333.792 29.814L334.928 28.686C334.986 28.6274 335.018 28.5615 335.023 28.4883C335.028 28.4102 335.003 28.3394 334.95 28.2759C334.583 27.8218 334.12 27.4165 333.558 27.0601C333.001 26.7036 332.376 26.4229 331.683 26.2178C330.995 26.0078 330.27 25.9028 329.508 25.9028C328.746 25.9028 328.019 26.0078 327.325 26.2178C326.637 26.4229 326.014 26.7036 325.458 27.0601C324.901 27.4165 324.437 27.8218 324.066 28.2759C324.012 28.3394 323.988 28.4077 323.993 28.481C323.998 28.5542 324.029 28.6226 324.088 28.686L325.223 29.8213ZM322.184 26.7598C322.252 26.833 322.333 26.8696 322.425 26.8696C322.523 26.8647 322.606 26.8257 322.674 26.7524C323.573 25.7954 324.603 25.0703 325.765 24.5771C326.932 24.0791 328.18 23.8301 329.508 23.8301C330.846 23.8301 332.098 24.0791 333.265 24.5771C334.432 25.0752 335.462 25.8027 336.356 26.7598C336.424 26.8281 336.502 26.8623 336.59 26.8623C336.683 26.8574 336.764 26.8184 336.832 26.7451L337.843 25.7344C337.906 25.666 337.938 25.5952 337.938 25.522C337.943 25.4487 337.918 25.3804 337.865 25.3169C337.293 24.6089 336.571 23.979 335.697 23.4272C334.823 22.8706 333.856 22.4336 332.796 22.1162C331.737 21.7939 330.641 21.6328 329.508 21.6328C328.375 21.6328 327.279 21.7915 326.219 22.1089C325.16 22.4263 324.193 22.8633 323.319 23.4199C322.445 23.9766 321.722 24.6089 321.151 25.3169C321.102 25.3804 321.078 25.4487 321.078 25.522C321.083 25.5952 321.114 25.666 321.173 25.7344L322.184 26.7598ZM349.356 32.6704H360.87C361.495 32.6704 362.066 32.6216 362.584 32.5239C363.102 32.4214 363.548 32.1821 363.924 31.8062C364.295 31.4351 364.53 30.9932 364.627 30.4805C364.73 29.9629 364.781 29.3916 364.781 28.7666V26.6646C364.781 26.0396 364.73 25.4707 364.627 24.958C364.53 24.4404 364.295 23.9961 363.924 23.625C363.548 23.249 363.102 23.0122 362.584 22.9146C362.066 22.812 361.495 22.7607 360.87 22.7607H349.342C348.727 22.7607 348.16 22.812 347.643 22.9146C347.13 23.0171 346.686 23.2539 346.31 23.625C345.938 24.001 345.702 24.4453 345.599 24.958C345.501 25.4707 345.453 26.0322 345.453 26.6426V28.7666C345.453 29.3916 345.501 29.9629 345.599 30.4805C345.697 30.9932 345.934 31.4351 346.31 31.8062C346.686 32.1821 347.13 32.4214 347.643 32.5239C348.16 32.6216 348.731 32.6704 349.356 32.6704ZM349.159 31.4912C348.783 31.4912 348.412 31.457 348.045 31.3887C347.684 31.3154 347.391 31.1689 347.167 30.9492C346.947 30.7246 346.803 30.4341 346.734 30.0776C346.666 29.7163 346.632 29.3452 346.632 28.9644V26.4814C346.632 26.0957 346.666 25.7222 346.734 25.3608C346.803 24.9946 346.947 24.7017 347.167 24.4819C347.386 24.2573 347.679 24.1108 348.045 24.0425C348.417 23.9741 348.795 23.9399 349.181 23.9399H361.075C361.451 23.9399 361.82 23.9766 362.181 24.0498C362.547 24.1182 362.84 24.2622 363.06 24.4819C363.285 24.7065 363.431 24.9995 363.5 25.3608C363.568 25.7173 363.602 26.0835 363.602 26.4595V28.9644C363.602 29.3452 363.568 29.7163 363.5 30.0776C363.431 30.4341 363.285 30.7246 363.06 30.9492C362.84 31.1689 362.547 31.3154 362.181 31.3887C361.82 31.457 361.451 31.4912 361.075 31.4912H349.159ZM365.777 29.6089C365.973 29.5942 366.175 29.5088 366.385 29.3525C366.595 29.1914 366.771 28.9717 366.913 28.6934C367.059 28.415 367.132 28.0879 367.132 27.7119C367.132 27.3408 367.059 27.0161 366.913 26.7378C366.771 26.4595 366.595 26.2397 366.385 26.0786C366.175 25.9175 365.973 25.832 365.777 25.8223V29.6089ZM348.771 30.6416H361.463C361.717 30.6416 361.922 30.6221 362.079 30.583C362.235 30.5391 362.364 30.4658 362.467 30.3633C362.657 30.1729 362.752 29.8384 362.752 29.3599V26.0713C362.752 25.8174 362.73 25.6123 362.687 25.4561C362.643 25.2998 362.569 25.1704 362.467 25.0679C362.364 24.9653 362.235 24.8945 362.079 24.8555C361.922 24.8115 361.717 24.7896 361.463 24.7896H348.792C348.534 24.7896 348.324 24.8115 348.163 24.8555C348.001 24.8945 347.87 24.9653 347.767 25.0679C347.669 25.1704 347.599 25.3022 347.555 25.4634C347.511 25.6196 347.489 25.8271 347.489 26.0859V29.3599C347.489 29.6138 347.511 29.8188 347.555 29.9751C347.599 30.1313 347.669 30.2607 347.767 30.3633C347.87 30.4658 347.999 30.5391 348.155 30.583C348.316 30.6221 348.521 30.6416 348.771 30.6416Z" fill="#48484A"/>
<path d="M28.6362 22.1821C27.9282 22.1821 27.2935 22.3384 26.7319 22.6509C26.1753 22.9634 25.7358 23.3955 25.4136 23.9473C25.0962 24.4941 24.9375 25.1191 24.9375 25.8223V25.8369C24.9375 26.5107 25.0889 27.1162 25.3916 27.6533C25.6943 28.1855 26.1069 28.6055 26.6294 28.9131C27.1519 29.2207 27.7427 29.3745 28.4019 29.3745C28.8804 29.3745 29.3052 29.2988 29.6763 29.1475C30.0522 28.9961 30.3696 28.7959 30.6284 28.5469C30.8921 28.2979 31.0874 28.0293 31.2144 27.7412H31.4707V25.8369H31.0386V25.8442C31.0386 26.3032 30.9312 26.7134 30.7163 27.0747C30.5063 27.4312 30.2207 27.7119 29.8594 27.917C29.498 28.1221 29.0879 28.2246 28.6289 28.2246C28.1748 28.2246 27.7695 28.1221 27.4131 27.917C27.0566 27.707 26.7759 27.4214 26.5708 27.0601C26.3657 26.6938 26.2632 26.2764 26.2632 25.8076V25.793C26.2632 25.334 26.3706 24.9214 26.5854 24.5552C26.8003 24.1841 27.0884 23.8911 27.4497 23.6763C27.811 23.4565 28.2114 23.3467 28.6509 23.3467C29.1001 23.3467 29.5029 23.459 29.8594 23.6836C30.2207 23.9033 30.5063 24.2012 30.7163 24.5771C30.9312 24.9531 31.0386 25.373 31.0386 25.8369L31.3535 27.5947C31.3535 27.6582 31.3535 27.7241 31.3535 27.7925C31.3535 27.856 31.3511 27.9219 31.3462 27.9902C31.3218 28.7227 31.2119 29.3989 31.0166 30.019C30.8213 30.6392 30.5234 31.1372 30.123 31.5132C29.7227 31.8843 29.2026 32.0698 28.563 32.0698C28.2065 32.0698 27.8867 32.0112 27.6035 31.894C27.3252 31.7769 27.0859 31.6108 26.8857 31.396C26.6904 31.1812 26.5391 30.9272 26.4316 30.6343L26.4023 30.5537H25.0767L25.0986 30.6489C25.2207 31.1665 25.4404 31.6206 25.7578 32.0112C26.0752 32.4019 26.4707 32.707 26.9443 32.9268C27.4229 33.1416 27.9575 33.249 28.5483 33.249C29.4028 33.249 30.1328 33.0244 30.7383 32.5752C31.3438 32.1211 31.8076 31.4692 32.1299 30.6196C32.4521 29.7651 32.6133 28.7373 32.6133 27.5361V27.5215C32.6133 26.5254 32.4985 25.688 32.269 25.0093C32.0396 24.3257 31.7319 23.7764 31.3462 23.3613C30.9653 22.9463 30.5381 22.646 30.0645 22.4604C29.5957 22.2749 29.1196 22.1821 28.6362 22.1821ZM35.7773 31.4985C36.041 31.4985 36.2656 31.4058 36.4512 31.2202C36.6367 31.0298 36.7295 30.8052 36.7295 30.5464C36.7295 30.2827 36.6367 30.0581 36.4512 29.8726C36.2656 29.687 36.041 29.5942 35.7773 29.5942C35.5186 29.5942 35.2939 29.687 35.1035 29.8726C34.918 30.0581 34.8252 30.2827 34.8252 30.5464C34.8252 30.8052 34.918 31.0298 35.1035 31.2202C35.2939 31.4058 35.5186 31.4985 35.7773 31.4985ZM35.7773 25.8296C36.041 25.8296 36.2656 25.7368 36.4512 25.5513C36.6367 25.3608 36.7295 25.1362 36.7295 24.8774C36.7295 24.6138 36.6367 24.3892 36.4512 24.2036C36.2656 24.0181 36.041 23.9253 35.7773 23.9253C35.5186 23.9253 35.2939 24.0181 35.1035 24.2036C34.918 24.3892 34.8252 24.6138 34.8252 24.8774C34.8252 25.1362 34.918 25.3608 35.1035 25.5513C35.2939 25.7368 35.5186 25.8296 35.7773 25.8296ZM44.0098 33H45.2988V30.8101H46.8003V29.6309H45.2988V22.4312H43.3872C43.0894 22.8706 42.7866 23.3247 42.479 23.7935C42.1763 24.2622 41.8711 24.7383 41.5635 25.2217C41.2559 25.7051 40.9482 26.1934 40.6406 26.6865C40.3379 27.1748 40.0376 27.6655 39.7397 28.1587C39.4419 28.647 39.1489 29.1304 38.8608 29.6089V30.8101H44.0098V33ZM40.2085 29.6382V29.5503C40.438 29.1597 40.6748 28.7642 40.9189 28.3638C41.168 27.9585 41.4194 27.5532 41.6733 27.1479C41.9272 26.7427 42.1812 26.3398 42.4351 25.9395C42.6938 25.5391 42.9478 25.1484 43.1968 24.7676C43.4458 24.3818 43.6899 24.0107 43.9292 23.6543H44.0171V29.6382H40.2085ZM51.2754 33H52.5938V22.4312H51.2827L48.4702 24.4526V25.8442L51.1582 23.896H51.2754V33Z" fill="#48484A"/>
<rect x="117" y="836" width="150" height="4" rx="2" fill="#E5E5EA"/>
<rect x="117" y="836" width="150" height="4" rx="2" fill="black"/>
</svg>
